<svg width="2081" height="891" viewBox="0 0 2081 891" fill="none" xmlns="http://www.w3.org/2000/svg">
<g opacity="0.3">
<path d="M573.389 675.714L573.165 675.669C573.187 675.646 573.187 675.624 573.232 675.602L573.389 675.714Z" fill="white"/>
<path d="M1596.97 889.563H1559.58C1533.25 667.79 1310.89 494.641 1040.51 494.641C770.133 494.641 547.776 667.79 521.444 889.563H484.056C486.949 863.343 492.422 837.751 500.227 812.945C501.572 808.634 503.008 804.347 504.511 800.081C520.166 755.498 543.492 713.675 573.165 675.669C573.187 675.647 573.187 675.624 573.232 675.602C575.968 672.077 578.794 668.553 581.665 665.096C610.195 630.659 644.017 599.59 682.191 572.718H682.213V572.696C685.869 570.136 689.57 567.6 693.315 565.085C731.13 539.83 772.915 518.594 817.75 502.183C821.966 500.634 826.205 499.13 830.467 497.671C833.45 496.661 836.433 495.651 839.438 494.685C839.707 494.596 839.999 494.506 840.268 494.416C843.049 493.518 845.83 492.643 848.634 491.79C851.684 490.847 854.757 489.926 857.83 489.028C857.852 489.006 857.874 489.006 857.897 489.006C859.086 488.647 860.274 488.31 861.485 487.996C862.674 487.659 863.885 487.3 865.074 486.985C865.657 486.806 866.263 486.649 866.868 486.492C867.227 486.357 867.608 486.267 867.967 486.177C870.233 485.549 872.52 484.943 874.808 484.359C875.817 484.067 876.827 483.82 877.858 483.573C880.168 482.967 882.479 482.383 884.789 481.845C885.17 481.732 885.551 481.643 885.91 481.575C889.05 480.812 892.213 480.071 895.398 479.353C898.201 478.702 901.027 478.096 903.876 477.49C904.436 477.355 905.042 477.243 905.625 477.13C907.262 476.771 908.922 476.434 910.582 476.12C910.694 476.098 910.784 476.075 910.896 476.053C912.6 475.694 914.35 475.357 916.077 475.043C921.998 473.898 927.986 472.843 933.997 471.855C937.272 471.339 940.524 470.822 943.799 470.351C946.513 469.947 949.249 469.565 951.963 469.206C954.991 468.802 958.018 468.42 961.046 468.061C963.513 467.747 965.981 467.477 968.448 467.23C968.582 467.208 968.807 467.185 969.053 467.163C969.435 467.096 969.794 467.073 970.175 467.028H970.197C970.646 466.983 971.072 466.939 971.319 466.916C972.014 466.826 972.44 466.781 972.844 466.759C973.068 466.736 973.27 466.714 973.494 466.692C973.741 466.669 974.01 466.647 974.369 466.602C975.042 466.534 975.692 466.467 976.365 466.4C978.765 466.153 981.187 465.928 983.61 465.726C1002.32 464.132 1021.31 463.324 1040.51 463.324C1059.71 463.324 1078.68 464.132 1097.39 465.726C1100.4 465.973 1103.4 466.265 1106.41 466.579C1107.89 466.714 1109.39 466.871 1110.87 467.051C1132.22 469.273 1153.19 472.551 1173.72 476.794C1176.11 477.287 1178.49 477.781 1180.87 478.32C1181.83 478.522 1182.78 478.724 1183.72 478.926C1185 479.218 1186.28 479.51 1187.55 479.802C1189.8 480.318 1192.02 480.834 1194.24 481.373C1196.48 481.89 1198.7 482.451 1200.9 483.012C1203.43 483.641 1205.95 484.292 1208.46 484.965C1211.15 485.661 1213.82 486.402 1216.49 487.143C1217.02 487.3 1217.56 487.434 1218.1 487.592C1220.57 488.287 1223.04 489.006 1225.48 489.724C1227.9 490.443 1230.33 491.161 1232.72 491.902C1235.35 492.71 1237.95 493.541 1240.55 494.394C1243.92 495.449 1247.24 496.571 1250.56 497.694C1254.82 499.13 1259.06 500.634 1263.27 502.183C1308.11 518.594 1349.89 539.83 1387.71 565.085C1391.45 567.6 1395.15 570.136 1398.81 572.696V572.718H1398.83C1436.98 599.59 1470.83 630.659 1499.33 665.096C1502.21 668.553 1505.03 672.077 1507.79 675.602C1537.51 713.608 1560.83 755.475 1576.51 800.081C1578.01 804.347 1579.45 808.634 1580.8 812.945C1588.6 837.751 1594.07 863.343 1596.97 889.563Z" fill="#B29E8A"/>
<path d="M693.315 565.085C689.57 567.599 685.869 570.136 682.213 572.695L673.309 558.575L661.511 539.807L465.732 352.942H0V339.473H471.137L672.3 531.524L693.315 565.085Z" fill="#49423A"/>
<path d="M581.665 665.095C578.794 668.552 575.968 672.077 573.232 675.601L552.441 659.797L547.394 655.958L409.301 573.032H0V559.562H413.047L555.715 645.295H555.738L581.665 665.095Z" fill="#49423A"/>
<path d="M504.511 800.081C503.008 804.347 501.573 808.634 500.227 812.945L469.746 798.981H469.724L465.485 797.028H465.462L0 797.702V784.232H470.913L504.511 800.081Z" fill="#49423A"/>
<path d="M830.467 497.671C826.205 499.131 821.966 500.635 817.75 502.184L804.539 456.365V456.343L575.43 0H590.502L817.122 451.382V451.404L830.467 497.671Z" fill="#49423A"/>
<path d="M1160.08 0L1118.29 415.867L1110.87 467.051C1109.39 466.849 1107.91 466.714 1106.41 466.58C1103.4 466.265 1100.4 465.974 1097.39 465.727L1104.93 414.498V414.476L1146.55 0H1160.08Z" fill="#49423A"/>
<path d="M983.61 465.727C980.514 465.996 977.442 466.265 974.369 466.602C972.978 466.737 972.709 466.759 971.319 466.916L964.77 415.755L964.5 413.263L920.944 0H934.468L976.118 414.565V414.588L983.61 465.727Z" fill="#49423A"/>
<path d="M2081 784.232V797.702H1615.43L1612.64 798.937H1612.62L1580.8 812.945C1579.45 808.634 1578.01 804.347 1576.51 800.081L1610.02 784.232H2081Z" fill="#49423A"/>
<path d="M2081 559.562V573.032H1671.72L1535.06 655.105L1528.92 659.73L1507.79 675.601C1505.03 672.077 1502.21 668.552 1499.33 665.095L1526.79 644.352L1667.98 559.562H2081Z" fill="#49423A"/>
<path d="M2081 339.473V352.942H1615.27L1420.9 538.483L1408.01 558.485H1407.98L1398.81 572.695C1395.15 570.136 1391.45 567.599 1387.71 565.085L1410.07 530.199L1609.89 339.473H2081Z" fill="#49423A"/>
<path d="M1505.59 0L1276.93 455.422L1263.27 502.184C1259.06 500.635 1254.82 499.131 1250.56 497.694L1264.33 450.551L1490.52 0H1505.59Z" fill="#49423A"/>
<path d="M804.539 456.343V456.365C802.049 457.353 799.582 458.386 797.115 459.441C750.665 479.129 709.127 503.845 672.3 531.524L471.137 339.473H0V0H575.43L804.539 456.343Z" fill="#CBBBA0"/>
<path d="M661.511 539.809C657.048 543.311 652.674 546.858 648.368 550.449C645.094 553.166 641.864 555.905 638.679 558.688C607.032 586.098 579.422 615.529 555.738 645.296H555.715L413.047 559.564H0V352.943H465.731L661.511 539.809Z" fill="#CBBBA0"/>
<path d="M547.394 655.96C546.744 656.813 546.093 657.666 545.443 658.519C542.729 662.111 540.083 665.703 537.503 669.294C508.57 709.141 486.5 748.786 470.913 784.233H0V573.033H409.301L547.394 655.96Z" fill="#CBBBA0"/>
<path d="M465.462 797.029C465.328 797.344 465.216 797.658 465.103 797.95C465.036 798.129 464.946 798.354 464.834 798.601C464.812 798.668 464.767 798.758 464.745 798.825C464.475 799.499 464.206 800.172 463.96 800.823C463.78 801.25 463.623 801.699 463.421 802.17C462.973 803.27 462.547 804.37 462.143 805.448C462.008 805.829 461.851 806.188 461.717 806.548C461.021 808.276 460.371 810.005 459.743 811.711C447.811 843.97 441.957 871.178 441.8 889.564H0V797.703L465.462 797.029Z" fill="#CBBBA0"/>
<path d="M1490.52 0L1264.33 450.551C1220.01 433.984 1171.41 421.884 1118.29 415.867L1160.08 0H1490.52Z" fill="#CBBBA0"/>
<path d="M964.769 415.755C964.096 415.845 963.401 415.912 962.728 416.002C960.104 416.316 957.502 416.653 954.901 416.99C911.658 422.557 871.376 432.278 833.988 445.276C828.291 447.251 822.661 449.294 817.121 451.404V451.382L590.502 0H920.944L964.5 413.263L964.769 415.755Z" fill="#CBBBA0"/>
<path d="M2081 797.701V889.562H1637.02C1636.87 870.122 1631.51 843.115 1620.58 811.732C1619.13 807.511 1617.56 803.224 1615.87 798.846C1615.74 798.464 1615.58 798.083 1615.43 797.701H2081Z" fill="#CBBBA0"/>
<path d="M2081 573.033V784.233H1610.02C1594.99 748.45 1573.53 708.715 1545.18 668.913C1542.62 665.343 1540.04 661.774 1537.37 658.205C1536.61 657.172 1535.85 656.139 1535.06 655.107L1671.72 573.033H2081Z" fill="#CBBBA0"/>
<path d="M2081 352.943V559.564H1667.98L1526.79 644.354C1503.37 614.609 1476.01 585.268 1444.54 557.992C1441.36 555.209 1438.13 552.47 1434.85 549.754C1430.3 545.937 1425.63 542.188 1420.9 538.484L1615.27 352.943H2081Z" fill="#CBBBA0"/>
<path d="M1146.55 0L1104.93 414.475V414.498C1104.23 414.408 1103.54 414.363 1102.82 414.296C1082.68 412.478 1061.91 411.535 1040.51 411.535C1019.11 411.535 998.323 412.5 978.182 414.386C977.486 414.431 976.791 414.498 976.118 414.588V414.565L934.468 0H1146.55Z" fill="#CBBBA0"/>
<path d="M2081 0V339.473H1609.89L1410.07 530.2C1373.11 502.588 1331.28 478.006 1284.36 458.475C1281.89 457.443 1279.42 456.433 1276.93 455.422L1505.59 0H2081Z" fill="#CBBBA0"/>
<path d="M682.213 572.696V572.719H682.19C644.017 599.59 610.194 630.66 581.665 665.096L555.737 645.296C579.422 615.529 607.032 586.098 638.679 558.688C641.863 555.904 645.093 553.166 648.368 550.449C652.674 546.858 657.048 543.311 661.511 539.809L673.308 558.576L682.213 572.696Z" fill="#A0927F"/>
<path d="M573.232 675.602C573.187 675.624 573.187 675.647 573.164 675.669C543.491 713.675 520.165 755.498 504.51 800.081L470.912 784.232C486.5 748.785 508.57 709.141 537.503 669.294C540.082 665.702 542.729 662.11 545.443 658.518C546.093 657.665 546.743 656.812 547.394 655.959L552.44 659.798L573.232 675.602Z" fill="#A0927F"/>
<path d="M500.227 812.946C492.421 837.752 486.949 863.344 484.055 889.564H441.8C441.957 871.178 447.811 843.97 459.743 811.711C460.371 810.005 461.021 808.276 461.716 806.548C461.851 806.188 462.008 805.829 462.143 805.448C462.591 804.325 463.017 803.203 463.421 802.17C463.623 801.699 463.78 801.25 463.959 800.823C464.206 800.172 464.475 799.499 464.744 798.825C464.767 798.758 464.812 798.668 464.834 798.601C464.946 798.354 465.036 798.129 465.103 797.95C465.215 797.658 465.327 797.344 465.462 797.029H465.484L469.724 798.982H469.746L500.227 812.946Z" fill="#A0927F"/>
<path d="M817.749 502.184C772.914 518.594 731.13 539.831 693.315 565.086L672.299 531.524C709.127 503.845 750.665 479.129 797.115 459.441C799.582 458.386 802.049 457.353 804.539 456.365L817.749 502.184Z" fill="#A0927F"/>
<path d="M1104.93 414.498L1097.39 465.727C1078.68 464.133 1059.71 463.325 1040.51 463.325C1021.31 463.325 1002.31 464.133 983.609 465.727L976.118 414.588C976.791 414.498 977.486 414.431 978.182 414.386C998.323 412.5 1019.11 411.535 1040.51 411.535C1061.91 411.535 1082.68 412.478 1102.82 414.296C1103.54 414.364 1104.23 414.409 1104.93 414.498Z" fill="#A0927F"/>
<path d="M1264.33 450.551L1250.56 497.694C1247.24 496.571 1243.92 495.449 1240.55 494.394C1237.95 493.541 1235.35 492.71 1232.72 491.902C1230.32 491.161 1227.9 490.443 1225.48 489.724C1223.04 489.006 1220.57 488.288 1218.1 487.592C1217.56 487.435 1217.02 487.3 1216.49 487.143C1213.82 486.402 1211.15 485.661 1208.46 484.965C1205.94 484.292 1203.43 483.641 1200.9 483.012C1198.7 482.451 1196.48 481.89 1194.24 481.373C1192.02 480.835 1189.8 480.318 1187.55 479.802C1186.27 479.51 1185 479.218 1183.72 478.926C1182.78 478.724 1181.83 478.522 1180.87 478.32C1178.49 477.781 1176.11 477.288 1173.71 476.794C1153.19 472.573 1132.22 469.318 1110.87 467.051L1118.29 415.867C1171.4 421.884 1220.01 433.984 1264.33 450.551Z" fill="#A0927F"/>
<path d="M971.318 466.917C970.735 466.984 969.031 467.142 968.447 467.231C965.98 467.478 963.513 467.748 961.046 468.062C958.018 468.421 954.99 468.803 951.962 469.207C949.248 469.566 946.512 469.948 943.798 470.352C940.524 470.823 937.249 471.317 933.997 471.856C927.986 472.844 921.998 473.899 916.076 475.044C914.237 475.38 912.398 475.74 910.581 476.121C908.922 476.435 907.262 476.772 905.625 477.131C905.041 477.244 904.436 477.356 903.875 477.491C901.027 478.097 898.201 478.703 895.397 479.354C889.498 480.656 883.667 482.07 877.858 483.574C876.826 483.821 875.817 484.068 874.808 484.36C872.52 484.944 870.232 485.55 867.967 486.178C867.608 486.268 867.227 486.358 866.868 486.493C863.862 487.301 860.879 488.131 857.896 489.007C857.874 489.007 857.852 489.007 857.829 489.029C854.756 489.927 851.684 490.848 848.633 491.791C845.83 492.644 843.049 493.519 840.268 494.417C836.993 495.472 833.718 496.55 830.466 497.672L817.121 451.405C822.661 449.295 828.291 447.252 833.987 445.276C871.197 432.435 912.196 422.648 954.9 416.991C957.502 416.654 960.104 416.317 962.728 416.003C963.401 415.913 964.096 415.846 964.769 415.756H964.791L971.318 466.917Z" fill="#A0927F"/>
<path d="M1637.02 889.564H1596.97C1594.07 863.344 1588.6 837.752 1580.8 812.946L1612.62 798.938H1612.64L1615.43 797.703C1615.58 798.085 1615.74 798.466 1615.87 798.848C1617.56 803.226 1619.13 807.513 1620.58 811.734C1631.51 843.117 1636.87 870.124 1637.02 889.564Z" fill="#A0927F"/>
<path d="M1610.02 784.234L1576.51 800.083C1560.83 755.477 1537.51 713.609 1507.79 675.603L1528.92 659.732L1535.06 655.107C1535.85 656.14 1536.61 657.173 1537.37 658.205C1540.04 661.775 1542.62 665.344 1545.18 668.914C1573.53 708.716 1594.99 748.45 1610.02 784.234Z" fill="#A0927F"/>
<path d="M1526.79 644.354L1499.33 665.097C1470.83 630.66 1436.98 599.59 1398.83 572.719H1398.81V572.697L1407.98 558.486H1408L1420.9 538.484C1425.63 542.188 1430.3 545.937 1434.85 549.754C1438.13 552.47 1441.36 555.209 1444.54 557.993C1476.01 585.268 1503.37 614.609 1526.79 644.354Z" fill="#A0927F"/>
<path d="M1410.07 530.201L1387.71 565.087C1349.89 539.832 1308.11 518.595 1263.27 502.185L1276.93 455.424C1279.42 456.434 1281.89 457.444 1284.36 458.477C1331.28 478.008 1373.11 502.589 1410.07 530.201Z" fill="#A0927F"/>
</g>
</svg>
