<svg width="252" height="73" viewBox="0 0 252 73" fill="none" xmlns="http://www.w3.org/2000/svg">
<path d="M178.15 70.2301H168.19V9.31006L148.57 16.3501V18.1301C156.5 15.9101 158.23 16.5101 158.23 26.6901V53.0501C158.02 65.2501 154.81 70.2201 147.71 70.2201V72.2101H196.17H196.19V52.7101H195.14C195.15 60.2801 192.32 70.2301 178.15 70.2301Z" fill="#101432"/>
<path d="M58.21 61.6001L39.58 11.8901H20.95V13.8701C28.04 13.8701 29.58 15.0701 30.49 17.3701L10.93 61.9101C7.65999 68.7401 4.89 70.2101 0 70.2101L0.019989 70.2201H0V72.2101H17.85V70.2201C13.43 70.2201 9.84997 69.5901 13.47 61.0401L20.06 46.0401C18.86 58.0601 44.14 54.4701 48.36 62.5401L49.03 64.2301C49.88 66.9101 48.16 70.2101 42.03 70.2101V72.2001H68.63V70.2101C64.01 70.2201 61.25 68.2201 58.21 61.6001ZM27.55 29.0201L27.23 29.6901L31.5 19.9601L46.5 57.9001C41.22 49.1001 17.45 51.9601 27.55 29.0201Z" fill="#101432"/>
<path d="M250.95 52.72H250.82V52.91C250.82 60.47 247.99 70.23 233.82 70.23H221.41V39.53H225C234.85 39.53 236.79 46.14 236.79 50.68H237.84V31.96H236.79C236.79 35.21 235.19 37.55 228.57 37.55H225.49C215.63 37.55 211.45 32 211.45 25.85C211.45 17.71 218.47 13.97 228.53 13.9C239.82 13.97 247.74 21.35 247.74 28.85H248.79V11.9L224.65 11.89L233.3 0H221.27V11.89H219.22C210 11.9 203.46 17.75 203.46 25.43C203.46 32.31 208.82 36.02 211.45 37.34V52.73C211.45 66.53 208.28 70.24 200.94 70.24L200.93 72.23H251.86V52.73H250.95V52.72Z" fill="#101432"/>
<path d="M124.65 60.7299L123.66 59.1199C121.08 54.9099 117.21 51.6699 112.65 49.8199L112.7 49.7999C123.21 46.5699 134.93 43.2899 134.93 28.3099C134.93 15.5699 124.93 12.3599 117.92 11.9499L75.96 11.8999V13.8799C83.3 13.8799 85.9499 20.0099 86.4699 32.3299C86.4699 32.3299 86.4799 46.9499 86.4799 51.8199C86.4799 59.2999 85.27 70.1999 76.02 70.2299H75.96V72.2199H103.86V70.2299H103.81C98.78 70.2199 96.45 68.3199 96.45 63.7899C96.45 59.6299 98.19 56.8599 100.93 54.8199C105.75 52.0799 111.72 53.5299 118.46 65.0599L122.19 72.2299H131.72L138.91 72.2199V70.2399C132.58 70.2399 129.29 68.2799 124.65 60.7299ZM96.4399 53.2399V13.8799H108.06C116.69 13.8799 123.59 18.6899 123.59 29.3499C123.59 49.3399 106.2 44.3599 96.4399 53.2399Z" fill="#101432"/>
</svg>
