<svg width="160" height="160" viewBox="0 0 160 160" fill="none" xmlns="http://www.w3.org/2000/svg">
<path d="M79.9998 153.719C39.349 153.719 6.27686 120.647 6.27686 79.9959C6.27686 39.3451 39.349 6.27295 79.9998 6.27295C120.651 6.27295 153.723 39.3451 153.723 79.9959C153.719 120.651 120.651 153.719 79.9998 153.719ZM79.9998 7.49349C40.0221 7.49349 7.49334 40.0182 7.49334 79.9999C7.49334 119.982 40.018 152.506 79.9998 152.506C119.982 152.506 152.506 119.982 152.506 79.9999C152.506 40.0182 119.977 7.49349 79.9998 7.49349Z" fill="#101432"/>
<path d="M80 160C35.8863 160 0 124.11 0 80C0 35.8863 35.8863 0 80 0C124.114 0 160 35.8863 160 80C159.996 124.11 124.11 160 80 160ZM80 1.21648C36.5594 1.21648 1.21648 36.5594 1.21648 80C1.21648 123.441 36.5594 158.784 80 158.784C123.441 158.784 158.784 123.441 158.784 80C158.779 36.5594 123.441 1.21648 80 1.21648Z" fill="#101432"/>
<path d="M79.9998 5.6809C79.6633 5.6809 79.3916 5.40922 79.3916 5.07266V2.53427C79.3916 2.19771 79.6633 1.92603 79.9998 1.92603C80.3364 1.92603 80.6081 2.19771 80.6081 2.53427V5.06861C80.6081 5.40517 80.3364 5.6809 79.9998 5.6809Z" fill="#101432"/>
<path d="M83.921 5.78232C83.9088 5.78232 83.9007 5.78232 83.8885 5.78232C83.552 5.7661 83.2965 5.4782 83.3127 5.14164L83.4466 2.6073C83.4628 2.27073 83.7547 2.01527 84.0872 2.03149C84.4238 2.04771 84.6793 2.33561 84.663 2.67217L84.5292 5.20651C84.509 5.53091 84.2413 5.78232 83.921 5.78232Z" fill="#101432"/>
<path d="M87.83 6.09058C87.8097 6.09058 87.7854 6.09058 87.7651 6.08652C87.4326 6.05003 87.1893 5.74996 87.2258 5.41745L87.4894 2.89528C87.5259 2.56277 87.8259 2.32353 88.1584 2.35597C88.4909 2.39247 88.7342 2.69253 88.6977 3.02504L88.4342 5.54721C88.4017 5.85944 88.1382 6.09058 87.83 6.09058Z" fill="#101432"/>
<path d="M91.7231 6.60147C91.6907 6.60147 91.6582 6.59742 91.6258 6.59336C91.2933 6.54065 91.0662 6.22842 91.1189 5.89591L91.5163 3.38996C91.569 3.05745 91.8813 2.83038 92.2138 2.88309C92.5463 2.9358 92.7733 3.24803 92.7206 3.58054L92.3232 6.0865C92.2746 6.38656 92.0151 6.60147 91.7231 6.60147Z" fill="#101432"/>
<path d="M95.5794 7.31521C95.5388 7.31521 95.4942 7.31116 95.4536 7.30305C95.1252 7.23412 94.9143 6.90972 94.9833 6.58127L95.5104 4.09964C95.5793 3.77119 95.9037 3.56034 96.2322 3.62927C96.5606 3.6982 96.7715 4.0226 96.7026 4.35105L96.1754 6.83268C96.1105 7.12058 95.8591 7.31521 95.5794 7.31521Z" fill="#101432"/>
<path d="M99.3909 8.23159C99.3382 8.23159 99.2855 8.22348 99.2327 8.21132C98.9083 8.12616 98.7137 7.7896 98.8029 7.46521L99.4598 5.01602C99.545 4.69163 99.8815 4.50104 100.206 4.5862C100.53 4.67135 100.725 5.00791 100.636 5.33231L99.9788 7.78149C99.9059 8.05318 99.6626 8.23159 99.3909 8.23159Z" fill="#101432"/>
<path d="M103.154 9.34673C103.093 9.34673 103.028 9.33862 102.967 9.31835C102.647 9.21292 102.473 8.8723 102.578 8.55196L103.361 6.13927C103.466 5.81893 103.807 5.64457 104.127 5.74999C104.447 5.85542 104.622 6.19604 104.516 6.51638L103.734 8.92907C103.649 9.18453 103.409 9.34673 103.154 9.34673Z" fill="#101432"/>
<path d="M106.852 10.6564C106.779 10.6564 106.706 10.6442 106.633 10.6158C106.321 10.4942 106.163 10.1455 106.284 9.82917L107.193 7.46108C107.314 7.14885 107.663 6.99071 107.979 7.11235C108.291 7.234 108.45 7.58273 108.328 7.89901L107.42 10.2671C107.326 10.5063 107.095 10.6564 106.852 10.6564Z" fill="#101432"/>
<path d="M110.473 12.1566C110.392 12.1566 110.307 12.1404 110.225 12.1039C109.917 11.9661 109.779 11.6092 109.917 11.3011L110.947 8.98568C111.085 8.6775 111.442 8.53963 111.75 8.6775C112.058 8.81537 112.196 9.17221 112.058 9.48038L111.028 11.7958C110.931 12.0228 110.708 12.1566 110.473 12.1566Z" fill="#101432"/>
<path d="M114.013 13.8476C113.92 13.8476 113.826 13.8273 113.737 13.7827C113.437 13.6287 113.319 13.2637 113.469 12.9636L114.621 10.705C114.775 10.405 115.14 10.2874 115.44 10.4374C115.74 10.5915 115.858 10.9564 115.708 11.2565L114.556 13.5151C114.451 13.726 114.236 13.8476 114.013 13.8476Z" fill="#101432"/>
<path d="M117.464 15.7169C117.362 15.7169 117.257 15.6925 117.159 15.6358C116.867 15.4695 116.77 15.0965 116.936 14.8045L118.206 12.6067C118.372 12.3148 118.745 12.2174 119.037 12.3837C119.329 12.5499 119.426 12.923 119.26 13.215L117.991 15.4127C117.877 15.6074 117.67 15.7169 117.464 15.7169Z" fill="#101432"/>
<path d="M120.805 17.7686C120.691 17.7686 120.578 17.7362 120.472 17.6713C120.189 17.4888 120.111 17.1117 120.294 16.8319L121.677 14.7031C121.859 14.4192 122.236 14.3422 122.516 14.5247C122.8 14.7071 122.877 15.0843 122.694 15.364L121.312 17.4929C121.202 17.6713 121.008 17.7686 120.805 17.7686Z" fill="#101432"/>
<path d="M124.041 19.991C123.915 19.991 123.793 19.9545 123.684 19.8734C123.412 19.6747 123.351 19.2935 123.55 19.0218L125.042 16.97C125.241 16.6984 125.618 16.6375 125.894 16.8362C126.166 17.0349 126.226 17.4161 126.028 17.6878L124.535 19.7396C124.414 19.9018 124.227 19.991 124.041 19.991Z" fill="#101432"/>
<path d="M127.151 22.3793C127.017 22.3793 126.879 22.3347 126.77 22.2455C126.51 22.0346 126.47 21.6494 126.681 21.3899L128.278 19.4192C128.489 19.1596 128.874 19.1191 129.134 19.33C129.393 19.5408 129.434 19.926 129.223 20.1855L127.625 22.1563C127.504 22.3022 127.329 22.3793 127.151 22.3793Z" fill="#101432"/>
<path d="M130.135 24.9257C129.989 24.9257 129.843 24.873 129.73 24.7676C129.478 24.5446 129.458 24.1593 129.685 23.9079L131.384 22.0224C131.607 21.771 131.993 21.7507 132.244 21.9778C132.495 22.2008 132.516 22.586 132.289 22.8374L130.59 24.723C130.468 24.8568 130.302 24.9257 130.135 24.9257Z" fill="#101432"/>
<path d="M132.982 27.6262C132.828 27.6262 132.67 27.5654 132.552 27.4478C132.313 27.2086 132.313 26.8234 132.552 26.5882L134.344 24.7959C134.584 24.5566 134.969 24.5566 135.204 24.7959C135.439 25.0351 135.443 25.4203 135.204 25.6555L133.412 27.4478C133.29 27.5654 133.136 27.6262 132.982 27.6262Z" fill="#101432"/>
<path d="M135.683 30.4689C135.516 30.4689 135.35 30.4 135.233 30.2662C135.01 30.0148 135.03 29.6336 135.277 29.4065L137.163 27.7116C137.414 27.4885 137.795 27.5088 138.022 27.7562C138.245 28.0076 138.225 28.3887 137.978 28.6158L136.092 30.3108C135.971 30.4203 135.825 30.4689 135.683 30.4689Z" fill="#101432"/>
<path d="M138.229 33.4534C138.051 33.4534 137.876 33.3763 137.755 33.2263C137.544 32.9668 137.584 32.5816 137.844 32.3707L139.815 30.7731C140.074 30.5622 140.459 30.6028 140.67 30.8623C140.881 31.1218 140.841 31.507 140.581 31.7179L138.61 33.3155C138.497 33.4088 138.363 33.4534 138.229 33.4534Z" fill="#101432"/>
<path d="M140.617 36.5676C140.431 36.5676 140.244 36.4825 140.127 36.3162C139.928 36.0445 139.989 35.6634 140.261 35.4647L142.312 33.9724C142.584 33.7738 142.965 33.8346 143.164 34.1063C143.363 34.3779 143.302 34.7591 143.03 34.9578L140.978 36.45C140.865 36.5271 140.739 36.5676 140.617 36.5676Z" fill="#101432"/>
<path d="M142.84 39.7992C142.641 39.7992 142.446 39.7019 142.329 39.5235C142.146 39.2396 142.227 38.8666 142.507 38.6801L144.636 37.2973C144.92 37.1149 145.293 37.196 145.479 37.4757C145.662 37.7596 145.581 38.1326 145.301 38.3192L143.172 39.7019C143.067 39.7668 142.953 39.7992 142.84 39.7992Z" fill="#101432"/>
<path d="M144.887 43.1447C144.677 43.1447 144.474 43.0352 144.36 42.8406C144.194 42.5486 144.291 42.1796 144.583 42.0093L146.781 40.7401C147.073 40.5739 147.442 40.6712 147.612 40.9632C147.779 41.2551 147.681 41.6241 147.389 41.7944L145.192 43.0636C145.098 43.1163 144.993 43.1447 144.887 43.1447Z" fill="#101432"/>
<path d="M146.761 46.5912C146.538 46.5912 146.327 46.4696 146.217 46.2587C146.063 45.9586 146.185 45.5937 146.485 45.4396L148.744 44.288C149.044 44.138 149.409 44.2556 149.563 44.5556C149.717 44.8557 149.595 45.2206 149.295 45.3747L147.036 46.5263C146.947 46.5709 146.854 46.5912 146.761 46.5912Z" fill="#101432"/>
<path d="M148.447 50.1312C148.216 50.1312 147.993 49.9974 147.892 49.7703C147.754 49.4622 147.892 49.1053 148.2 48.9675L150.515 47.9375C150.824 47.7996 151.18 47.9375 151.318 48.2457C151.456 48.5539 151.318 48.9107 151.01 49.0486L148.695 50.0785C148.614 50.115 148.533 50.1312 148.447 50.1312Z" fill="#101432"/>
<path d="M149.948 53.7565C149.705 53.7565 149.474 53.6064 149.38 53.3672C149.259 53.055 149.417 52.7022 149.729 52.5805L152.097 51.6722C152.409 51.5546 152.762 51.7087 152.884 52.0209C153.006 52.3332 152.847 52.686 152.535 52.8076L150.167 53.7159C150.098 53.7443 150.021 53.7565 149.948 53.7565Z" fill="#101432"/>
<path d="M151.257 57.4545C151.002 57.4545 150.763 57.2923 150.677 57.0327C150.572 56.7124 150.75 56.3718 151.067 56.2663L153.479 55.4837C153.8 55.3783 154.14 55.5567 154.246 55.873C154.351 56.1934 154.173 56.534 153.856 56.6394L151.444 57.422C151.383 57.4423 151.322 57.4545 151.257 57.4545Z" fill="#101432"/>
<path d="M152.372 61.2135C152.105 61.2135 151.857 61.0351 151.784 60.7634C151.699 60.439 151.89 60.1065 152.214 60.0173L154.663 59.3604C154.988 59.2752 155.32 59.4658 155.41 59.7902C155.495 60.1146 155.304 60.4471 154.98 60.5363L152.531 61.1932C152.478 61.2094 152.425 61.2135 152.372 61.2135Z" fill="#101432"/>
<path d="M153.289 65.0291C153.009 65.0291 152.754 64.8345 152.697 64.5466C152.628 64.2181 152.835 63.8937 153.167 63.8248L155.649 63.2977C155.973 63.2287 156.302 63.4355 156.371 63.768C156.44 64.0965 156.233 64.4209 155.9 64.4898L153.419 65.017C153.374 65.0251 153.329 65.0291 153.289 65.0291Z" fill="#101432"/>
<path d="M154.003 68.8855C153.711 68.8855 153.451 68.6706 153.403 68.3705C153.35 68.038 153.577 67.7258 153.909 67.6731L156.415 67.2757C156.748 67.223 157.06 67.45 157.113 67.7825C157.166 68.115 156.939 68.4273 156.606 68.48L154.1 68.8774C154.068 68.8855 154.035 68.8855 154.003 68.8855Z" fill="#101432"/>
<path d="M154.514 72.774C154.205 72.774 153.942 72.5428 153.909 72.2306C153.873 71.8981 154.116 71.598 154.453 71.5615L156.975 71.298C157.307 71.2696 157.607 71.5048 157.644 71.8413C157.68 72.1738 157.437 72.4739 157.101 72.5104L154.578 72.774C154.558 72.774 154.538 72.774 154.514 72.774Z" fill="#101432"/>
<path d="M154.822 76.6872C154.502 76.6872 154.23 76.4358 154.214 76.1114C154.197 75.7748 154.453 75.491 154.789 75.4707L157.324 75.3369C157.66 75.3207 157.944 75.5762 157.964 75.9127C157.981 76.2493 157.725 76.5331 157.389 76.5534L154.854 76.6872C154.846 76.6872 154.834 76.6872 154.822 76.6872Z" fill="#101432"/>
<path d="M157.462 80.6083H154.928C154.591 80.6083 154.319 80.3366 154.319 80.0001C154.319 79.6635 154.591 79.3918 154.928 79.3918H157.462C157.798 79.3918 158.07 79.6635 158.07 80.0001C158.07 80.3366 157.798 80.6083 157.462 80.6083Z" fill="#101432"/>
<path d="M157.356 84.6632C157.344 84.6632 157.336 84.6632 157.324 84.6632L154.789 84.5294C154.453 84.5131 154.197 84.2252 154.214 83.8887C154.23 83.5521 154.506 83.2926 154.854 83.3129L157.389 83.4467C157.725 83.4629 157.981 83.7508 157.964 84.0874C157.948 84.4118 157.677 84.6632 157.356 84.6632Z" fill="#101432"/>
<path d="M157.04 88.706C157.02 88.706 156.996 88.706 156.975 88.7019L154.453 88.4384C154.121 88.4019 153.877 88.1018 153.914 87.7693C153.95 87.4368 154.25 87.1976 154.583 87.23L157.105 87.4936C157.438 87.5301 157.681 87.8301 157.644 88.1626C157.612 88.4708 157.348 88.706 157.04 88.706Z" fill="#101432"/>
<path d="M156.509 92.7243C156.476 92.7243 156.444 92.7203 156.412 92.7162L153.906 92.3189C153.573 92.2661 153.346 91.9539 153.399 91.6214C153.451 91.2889 153.768 91.0618 154.096 91.1145L156.602 91.5119C156.935 91.5646 157.162 91.8769 157.109 92.2094C157.06 92.5135 156.805 92.7243 156.509 92.7243Z" fill="#101432"/>
<path d="M155.77 96.7145C155.73 96.7145 155.685 96.7104 155.645 96.7023L153.163 96.1752C152.835 96.1062 152.624 95.7818 152.693 95.4534C152.762 95.1249 153.086 94.9141 153.415 94.983L155.896 95.5102C156.225 95.5791 156.435 95.9035 156.367 96.232C156.306 96.5158 156.05 96.7145 155.77 96.7145Z" fill="#101432"/>
<path d="M154.822 100.656C154.769 100.656 154.716 100.648 154.663 100.636L152.214 99.9787C151.89 99.8935 151.699 99.557 151.784 99.2326C151.87 98.9082 152.206 98.7176 152.531 98.8028L154.98 99.4596C155.304 99.5448 155.495 99.8814 155.41 100.206C155.337 100.477 155.093 100.656 154.822 100.656Z" fill="#101432"/>
<path d="M153.67 104.545C153.609 104.545 153.544 104.536 153.484 104.516L151.071 103.734C150.751 103.628 150.576 103.287 150.682 102.967C150.787 102.647 151.128 102.472 151.448 102.578L153.861 103.36C154.181 103.466 154.355 103.807 154.25 104.127C154.165 104.382 153.93 104.545 153.67 104.545Z" fill="#101432"/>
<path d="M152.316 108.368C152.243 108.368 152.17 108.356 152.097 108.328L149.729 107.42C149.417 107.298 149.259 106.949 149.38 106.633C149.502 106.321 149.851 106.163 150.167 106.284L152.535 107.193C152.847 107.314 153.006 107.663 152.884 107.979C152.795 108.218 152.564 108.368 152.316 108.368Z" fill="#101432"/>
<path d="M150.767 112.115C150.686 112.115 150.6 112.099 150.519 112.062L148.204 111.032C147.896 110.895 147.758 110.538 147.896 110.23C148.034 109.921 148.39 109.784 148.699 109.921L151.014 110.951C151.322 111.089 151.46 111.446 151.322 111.754C151.221 111.981 150.998 112.115 150.767 112.115Z" fill="#101432"/>
<path d="M149.019 115.777C148.926 115.777 148.833 115.756 148.744 115.712L146.485 114.56C146.185 114.406 146.067 114.041 146.217 113.741C146.372 113.441 146.736 113.324 147.037 113.474L149.295 114.625C149.595 114.779 149.713 115.144 149.563 115.444C149.453 115.655 149.242 115.777 149.019 115.777Z" fill="#101432"/>
<path d="M147.085 119.341C146.984 119.341 146.878 119.317 146.781 119.26L144.583 117.991C144.291 117.824 144.194 117.451 144.36 117.159C144.527 116.867 144.9 116.77 145.192 116.936L147.389 118.206C147.681 118.372 147.779 118.745 147.612 119.037C147.499 119.232 147.296 119.341 147.085 119.341Z" fill="#101432"/>
<path d="M144.964 122.796C144.85 122.796 144.737 122.763 144.631 122.699L142.503 121.316C142.223 121.133 142.142 120.756 142.324 120.472C142.507 120.189 142.884 120.111 143.168 120.294L145.296 121.677C145.576 121.859 145.657 122.236 145.475 122.52C145.357 122.699 145.163 122.796 144.964 122.796Z" fill="#101432"/>
<path d="M142.669 126.141C142.543 126.141 142.422 126.105 142.312 126.024L140.261 124.531C139.989 124.333 139.928 123.951 140.127 123.68C140.325 123.408 140.703 123.347 140.978 123.546L143.03 125.038C143.302 125.237 143.363 125.618 143.164 125.89C143.042 126.052 142.856 126.141 142.669 126.141Z" fill="#101432"/>
<path d="M140.2 129.357C140.066 129.357 139.928 129.312 139.819 129.223L137.848 127.625C137.588 127.414 137.548 127.029 137.759 126.77C137.97 126.51 138.351 126.47 138.614 126.681L140.585 128.278C140.844 128.489 140.885 128.874 140.674 129.134C140.553 129.28 140.378 129.357 140.2 129.357Z" fill="#101432"/>
<path d="M137.564 132.443C137.418 132.443 137.272 132.39 137.158 132.285L135.273 130.59C135.021 130.367 135.001 129.981 135.228 129.73C135.451 129.478 135.837 129.458 136.088 129.685L137.973 131.38C138.225 131.603 138.245 131.989 138.018 132.24C137.896 132.374 137.73 132.443 137.564 132.443Z" fill="#101432"/>
<path d="M134.774 135.383C134.62 135.383 134.462 135.322 134.344 135.204L132.552 133.412C132.313 133.173 132.313 132.787 132.552 132.552C132.791 132.317 133.176 132.313 133.412 132.552L135.204 134.344C135.443 134.584 135.443 134.969 135.204 135.204C135.086 135.322 134.928 135.383 134.774 135.383Z" fill="#101432"/>
<path d="M131.834 138.172C131.668 138.172 131.502 138.103 131.384 137.97L129.685 136.084C129.462 135.833 129.482 135.451 129.73 135.224C129.981 134.997 130.362 135.022 130.589 135.269L132.288 137.155C132.511 137.406 132.491 137.787 132.244 138.014C132.122 138.124 131.976 138.172 131.834 138.172Z" fill="#101432"/>
<path d="M128.749 140.808C128.57 140.808 128.396 140.731 128.274 140.581L126.677 138.61C126.466 138.351 126.506 137.965 126.766 137.755C127.029 137.544 127.411 137.584 127.621 137.844L129.219 139.814C129.43 140.074 129.389 140.459 129.13 140.67C129.02 140.763 128.883 140.808 128.749 140.808Z" fill="#101432"/>
<path d="M125.533 143.277C125.346 143.277 125.16 143.192 125.042 143.026L123.55 140.974C123.351 140.702 123.412 140.321 123.684 140.123C123.956 139.924 124.337 139.985 124.535 140.256L126.028 142.308C126.226 142.58 126.166 142.961 125.894 143.16C125.78 143.241 125.655 143.277 125.533 143.277Z" fill="#101432"/>
<path d="M122.188 145.572C121.989 145.572 121.794 145.475 121.677 145.297L120.294 143.168C120.111 142.884 120.193 142.511 120.472 142.324C120.756 142.142 121.129 142.223 121.316 142.503L122.698 144.632C122.881 144.916 122.8 145.289 122.52 145.475C122.419 145.544 122.301 145.572 122.188 145.572Z" fill="#101432"/>
<path d="M118.733 147.693C118.522 147.693 118.319 147.584 118.206 147.389L116.936 145.191C116.77 144.899 116.867 144.53 117.159 144.36C117.451 144.194 117.824 144.291 117.991 144.583L119.26 146.781C119.426 147.073 119.329 147.442 119.037 147.612C118.94 147.669 118.834 147.693 118.733 147.693Z" fill="#101432"/>
<path d="M115.169 149.627C114.946 149.627 114.735 149.506 114.625 149.295L113.474 147.036C113.32 146.736 113.441 146.371 113.741 146.217C114.041 146.067 114.406 146.185 114.56 146.485L115.712 148.743C115.866 149.043 115.744 149.408 115.444 149.563C115.355 149.607 115.262 149.627 115.169 149.627Z" fill="#101432"/>
<path d="M111.507 151.375C111.276 151.375 111.053 151.241 110.952 151.014L109.922 148.699C109.784 148.391 109.922 148.034 110.23 147.896C110.538 147.758 110.895 147.896 111.033 148.204L112.063 150.52C112.201 150.828 112.063 151.185 111.754 151.322C111.673 151.359 111.588 151.375 111.507 151.375Z" fill="#101432"/>
<path d="M107.76 152.924C107.517 152.924 107.286 152.774 107.193 152.535L106.284 150.167C106.163 149.855 106.321 149.502 106.633 149.38C106.945 149.259 107.298 149.417 107.42 149.729L108.328 152.097C108.45 152.409 108.291 152.762 107.979 152.884C107.906 152.912 107.833 152.924 107.76 152.924Z" fill="#101432"/>
<path d="M103.936 154.278C103.681 154.278 103.442 154.116 103.356 153.857L102.574 151.444C102.468 151.124 102.647 150.783 102.963 150.678C103.283 150.572 103.624 150.751 103.729 151.067L104.512 153.48C104.618 153.8 104.439 154.141 104.123 154.246C104.062 154.27 103.997 154.278 103.936 154.278Z" fill="#101432"/>
<path d="M100.047 155.43C99.7797 155.43 99.5324 155.252 99.4594 154.98L98.8025 152.531C98.7174 152.206 98.9079 151.874 99.2323 151.785C99.5567 151.7 99.8892 151.89 99.9784 152.215L100.635 154.664C100.72 154.988 100.53 155.321 100.206 155.41C100.153 155.426 100.1 155.43 100.047 155.43Z" fill="#101432"/>
<path d="M96.1021 156.379C95.8223 156.379 95.5669 156.184 95.5101 155.896L94.983 153.415C94.914 153.086 95.1208 152.762 95.4533 152.693C95.7777 152.624 96.1062 152.831 96.1751 153.163L96.7023 155.645C96.7712 155.973 96.5644 156.298 96.2319 156.367C96.1873 156.375 96.1467 156.379 96.1021 156.379Z" fill="#101432"/>
<path d="M92.1164 157.117C91.8245 157.117 91.565 156.902 91.5163 156.602L91.1189 154.096C91.0662 153.763 91.2933 153.451 91.6258 153.398C91.9542 153.346 92.2705 153.573 92.3232 153.905L92.7206 156.411C92.7733 156.744 92.5463 157.056 92.2138 157.109C92.1813 157.117 92.1489 157.117 92.1164 157.117Z" fill="#101432"/>
<path d="M88.0936 157.648C87.7854 157.648 87.5218 157.417 87.4894 157.105L87.2258 154.583C87.1893 154.25 87.4326 153.95 87.7651 153.914C88.1017 153.881 88.3977 154.12 88.4342 154.453L88.6977 156.975C88.7342 157.308 88.4909 157.608 88.1584 157.644C88.1382 157.644 88.1179 157.648 88.0936 157.648Z" fill="#101432"/>
<path d="M84.0509 157.964C83.7306 157.964 83.4589 157.713 83.4427 157.389L83.3088 154.854C83.2926 154.518 83.5481 154.234 83.8846 154.214C84.2171 154.193 84.505 154.453 84.5253 154.789L84.6591 157.324C84.6754 157.66 84.4199 157.944 84.0833 157.964C84.0752 157.964 84.0631 157.964 84.0509 157.964Z" fill="#101432"/>
<path d="M79.9998 158.07C79.6633 158.07 79.3916 157.798 79.3916 157.462V154.927C79.3916 154.591 79.6633 154.319 79.9998 154.319C80.3364 154.319 80.6081 154.591 80.6081 154.927V157.462C80.6081 157.798 80.3364 158.07 79.9998 158.07Z" fill="#101432"/>
<path d="M75.9449 157.964C75.9327 157.964 75.9246 157.964 75.9125 157.964C75.5759 157.948 75.3204 157.66 75.3367 157.324L75.4705 154.789C75.4867 154.453 75.7705 154.193 76.1112 154.214C76.4477 154.23 76.7032 154.518 76.687 154.854L76.5532 157.389C76.5369 157.713 76.2653 157.964 75.9449 157.964Z" fill="#101432"/>
<path d="M71.9022 157.648C71.8819 157.648 71.8576 157.648 71.8373 157.644C71.5048 157.608 71.2615 157.308 71.2939 156.975L71.5575 154.453C71.594 154.116 71.8981 153.881 72.2265 153.91C72.5591 153.946 72.8024 154.246 72.7699 154.579L72.5063 157.101C72.4739 157.417 72.2103 157.648 71.9022 157.648Z" fill="#101432"/>
<path d="M67.8799 157.117C67.8474 157.117 67.815 157.113 67.7825 157.109C67.45 157.056 67.223 156.744 67.2757 156.411L67.6731 153.905C67.7258 153.573 68.038 153.35 68.3705 153.399C68.703 153.451 68.9301 153.763 68.8774 154.096L68.48 156.602C68.4354 156.906 68.1759 157.117 67.8799 157.117Z" fill="#101432"/>
<path d="M63.8938 156.379C63.8533 156.379 63.8086 156.375 63.7681 156.367C63.4396 156.298 63.2288 155.973 63.2977 155.645L63.8249 153.163C63.8938 152.835 64.2182 152.624 64.5466 152.693C64.8751 152.762 65.086 153.086 65.017 153.415L64.4899 155.896C64.4291 156.184 64.1736 156.379 63.8938 156.379Z" fill="#101432"/>
<path d="M59.948 155.43C59.8953 155.43 59.8426 155.422 59.7899 155.41C59.4655 155.325 59.2708 154.988 59.36 154.664L60.0169 152.215C60.1062 151.89 60.4387 151.7 60.7631 151.785C61.0875 151.87 61.2821 152.206 61.1929 152.531L60.536 154.98C60.463 155.252 60.2197 155.43 59.948 155.43Z" fill="#101432"/>
<path d="M56.0597 154.278C55.9989 154.278 55.934 154.27 55.8732 154.25C55.5528 154.145 55.3785 153.804 55.4839 153.484L56.2665 151.071C56.3719 150.751 56.7125 150.576 57.0329 150.682C57.3532 150.787 57.5276 151.128 57.4221 151.448L56.6395 153.861C56.5544 154.116 56.3192 154.278 56.0597 154.278Z" fill="#101432"/>
<path d="M52.2396 152.924C52.1666 152.924 52.0936 152.912 52.0206 152.884C51.7084 152.762 51.5503 152.413 51.6719 152.097L52.5802 149.729C52.7019 149.417 53.0547 149.259 53.3669 149.38C53.6791 149.502 53.8373 149.851 53.7156 150.167L52.8073 152.535C52.714 152.778 52.4829 152.924 52.2396 152.924Z" fill="#101432"/>
<path d="M48.4889 151.375C48.4078 151.375 48.3226 151.359 48.2415 151.322C47.9334 151.185 47.7955 150.828 47.9334 150.52L48.9633 148.204C49.1012 147.896 49.4621 147.758 49.7662 147.896C50.0744 148.034 50.2122 148.391 50.0744 148.699L49.0444 151.014C48.9471 151.241 48.7241 151.375 48.4889 151.375Z" fill="#101432"/>
<path d="M44.8316 149.627C44.7383 149.627 44.6451 149.607 44.5559 149.563C44.2558 149.408 44.1382 149.043 44.2882 148.743L45.4398 146.485C45.5939 146.185 45.9589 146.067 46.2589 146.217C46.559 146.371 46.6766 146.736 46.5266 147.036L45.375 149.295C45.2655 149.506 45.0506 149.627 44.8316 149.627Z" fill="#101432"/>
<path d="M41.2673 147.693C41.1659 147.693 41.0605 147.669 40.9632 147.612C40.6712 147.446 40.5739 147.073 40.7401 146.781L42.0093 144.583C42.1756 144.291 42.5486 144.194 42.8406 144.36C43.1326 144.526 43.2299 144.899 43.0636 145.191L41.7944 147.389C41.6809 147.584 41.4781 147.693 41.2673 147.693Z" fill="#101432"/>
<path d="M37.8083 145.572C37.6947 145.572 37.5812 145.54 37.4757 145.475C37.196 145.293 37.1149 144.916 37.2973 144.632L38.6801 142.503C38.8625 142.219 39.2396 142.142 39.5235 142.324C39.8033 142.507 39.8844 142.884 39.7019 143.168L38.3192 145.297C38.2016 145.475 38.0069 145.572 37.8083 145.572Z" fill="#101432"/>
<path d="M34.467 143.277C34.3413 143.277 34.2197 143.241 34.1102 143.16C33.8385 142.961 33.7777 142.584 33.9764 142.308L35.4686 140.256C35.6673 139.985 36.0444 139.924 36.3201 140.123C36.5918 140.321 36.6526 140.698 36.4539 140.974L34.9617 143.026C34.8401 143.188 34.6535 143.277 34.467 143.277Z" fill="#101432"/>
<path d="M31.2476 140.808C31.1138 140.808 30.9759 140.763 30.8664 140.674C30.6069 140.463 30.5664 140.078 30.7772 139.819L32.3749 137.848C32.5857 137.588 32.9669 137.548 33.2305 137.759C33.49 137.97 33.5305 138.355 33.3197 138.614L31.722 140.585C31.6004 140.731 31.426 140.808 31.2476 140.808Z" fill="#101432"/>
<path d="M28.1657 138.172C28.0197 138.172 27.8737 138.12 27.7602 138.014C27.5088 137.791 27.4885 137.406 27.7156 137.155L29.4146 135.269C29.6376 135.018 30.0228 134.997 30.2742 135.224C30.5256 135.447 30.5459 135.833 30.3188 136.084L28.6198 137.97C28.4982 138.107 28.3319 138.172 28.1657 138.172Z" fill="#101432"/>
<path d="M25.2216 135.382C25.0675 135.382 24.9093 135.322 24.7917 135.204C24.5525 134.965 24.5525 134.579 24.7917 134.344L26.584 132.552C26.8233 132.313 27.2085 132.313 27.4437 132.552C27.6789 132.791 27.6829 133.176 27.4437 133.412L25.6514 135.204C25.5338 135.322 25.3797 135.382 25.2216 135.382Z" fill="#101432"/>
<path d="M22.4318 132.443C22.2656 132.443 22.0993 132.374 21.9777 132.24C21.7547 131.988 21.7749 131.607 22.0223 131.38L23.9078 129.685C24.1592 129.462 24.5404 129.482 24.7675 129.73C24.9905 129.981 24.9702 130.362 24.7229 130.589L22.8373 132.284C22.7238 132.39 22.5778 132.443 22.4318 132.443Z" fill="#101432"/>
<path d="M19.8005 129.357C19.6221 129.357 19.4477 129.28 19.326 129.13C19.1152 128.87 19.1557 128.485 19.4153 128.274L21.386 126.676C21.6495 126.466 22.0307 126.506 22.2416 126.766C22.4524 127.025 22.4119 127.41 22.1523 127.621L20.1816 129.219C20.0681 129.312 19.9343 129.357 19.8005 129.357Z" fill="#101432"/>
<path d="M17.3308 126.141C17.1442 126.141 16.9577 126.056 16.8401 125.89C16.6414 125.618 16.7023 125.237 16.9739 125.038L19.0257 123.546C19.2974 123.347 19.6786 123.408 19.8773 123.68C20.076 123.951 20.0151 124.333 19.7435 124.531L17.6917 126.024C17.5781 126.101 17.4524 126.141 17.3308 126.141Z" fill="#101432"/>
<path d="M15.0319 122.796C14.8332 122.796 14.6386 122.698 14.521 122.52C14.3385 122.236 14.4196 121.863 14.6994 121.677L16.8282 120.294C17.1121 120.111 17.4851 120.193 17.6717 120.472C17.8582 120.752 17.773 121.129 17.4932 121.316L15.3644 122.698C15.263 122.763 15.1454 122.796 15.0319 122.796Z" fill="#101432"/>
<path d="M12.9152 119.341C12.7044 119.341 12.5016 119.232 12.3881 119.037C12.2218 118.745 12.3192 118.376 12.6111 118.206L14.8089 116.936C15.1008 116.77 15.4698 116.867 15.6402 117.159C15.8064 117.451 15.7091 117.82 15.4171 117.991L13.2194 119.26C13.122 119.313 13.0166 119.341 12.9152 119.341Z" fill="#101432"/>
<path d="M10.9765 115.777C10.7534 115.777 10.5426 115.655 10.4331 115.444C10.279 115.144 10.4006 114.779 10.7007 114.625L12.9593 113.474C13.2594 113.324 13.6243 113.441 13.7784 113.741C13.9325 114.041 13.8109 114.406 13.5108 114.56L11.2522 115.712C11.167 115.752 11.0697 115.777 10.9765 115.777Z" fill="#101432"/>
<path d="M9.23303 112.115C9.0019 112.115 8.77888 111.981 8.6775 111.754C8.53963 111.446 8.6775 111.089 8.98568 110.951L11.3011 109.921C11.6092 109.784 11.9661 109.921 12.1039 110.23C12.2418 110.538 12.1039 110.895 11.7958 111.032L9.48038 112.062C9.39928 112.099 9.31413 112.115 9.23303 112.115Z" fill="#101432"/>
<path d="M7.68005 108.368C7.43675 108.368 7.20562 108.218 7.11235 107.979C6.99071 107.667 7.14885 107.314 7.46108 107.193L9.82917 106.284C10.1414 106.163 10.4942 106.321 10.6158 106.633C10.7375 106.945 10.5793 107.298 10.2671 107.42L7.89901 108.328C7.82602 108.356 7.75303 108.368 7.68005 108.368Z" fill="#101432"/>
<path d="M6.32557 104.545C6.07011 104.545 5.83086 104.382 5.74571 104.123C5.64028 103.803 5.8187 103.462 6.13499 103.357L8.54768 102.574C8.86802 102.469 9.20863 102.643 9.31406 102.963C9.41949 103.284 9.24107 103.624 8.92479 103.73L6.51209 104.512C6.45127 104.537 6.38639 104.545 6.32557 104.545Z" fill="#101432"/>
<path d="M5.17416 100.656C4.90654 100.656 4.65919 100.477 4.5862 100.206C4.50104 99.8814 4.69163 99.5489 5.01602 99.4596L7.46521 98.8028C7.79366 98.7176 8.12211 98.9082 8.21132 99.2326C8.29647 99.557 8.10589 99.8895 7.78149 99.9787L5.33231 100.636C5.27959 100.648 5.22688 100.656 5.17416 100.656Z" fill="#101432"/>
<path d="M4.22537 96.7144C3.94558 96.7144 3.69012 96.5198 3.63335 96.2319C3.56442 95.9034 3.77122 95.579 4.10372 95.5101L6.58535 94.9829C6.90975 94.91 7.2382 95.1208 7.30713 95.4533C7.37607 95.7818 7.16926 96.1062 6.83676 96.1751L4.35513 96.7022C4.31053 96.7104 4.26998 96.7144 4.22537 96.7144Z" fill="#101432"/>
<path d="M3.48713 92.7243C3.19517 92.7243 2.93566 92.5094 2.887 92.2094C2.83428 91.8769 3.06136 91.5646 3.39386 91.5119L5.89982 91.1145C6.22827 91.0618 6.54456 91.2889 6.59727 91.6214C6.64998 91.9539 6.42291 92.2661 6.0904 92.3189L3.58445 92.7162C3.55201 92.7243 3.51957 92.7243 3.48713 92.7243Z" fill="#101432"/>
<path d="M2.96035 88.706C2.65217 88.706 2.3886 88.4749 2.35616 88.1626C2.31967 87.8301 2.56297 87.5301 2.89547 87.4936L5.41765 87.23C5.75421 87.1976 6.05022 87.4368 6.08671 87.7693C6.12321 88.1018 5.87991 88.4019 5.54741 88.4384L3.02523 88.7019C3.0009 88.7019 2.98063 88.706 2.96035 88.706Z" fill="#101432"/>
<path d="M2.63973 84.6633C2.31939 84.6633 2.04771 84.4119 2.03149 84.0875C2.01527 83.7509 2.27073 83.4671 2.6073 83.4468L5.14164 83.313C5.48225 83.2968 5.76204 83.5522 5.78232 83.8888C5.79854 84.2253 5.54308 84.5092 5.20651 84.5295L2.67217 84.6633C2.66001 84.6633 2.6519 84.6633 2.63973 84.6633Z" fill="#101432"/>
<path d="M5.07291 80.6083H2.53451C2.19795 80.6083 1.92627 80.3366 1.92627 80.0001C1.92627 79.6635 2.19795 79.3918 2.53451 79.3918H5.06885C5.40541 79.3918 5.67709 79.6635 5.67709 80.0001C5.67709 80.3366 5.40541 80.6083 5.07291 80.6083Z" fill="#101432"/>
<path d="M5.17408 76.6872C5.16191 76.6872 5.1538 76.6872 5.14164 76.6872L2.6073 76.5534C2.27073 76.5372 2.01527 76.2493 2.03149 75.9127C2.04771 75.5762 2.33561 75.3207 2.67217 75.3369L5.20651 75.4707C5.54308 75.4869 5.79854 75.7748 5.78232 76.1114C5.76204 76.4358 5.49442 76.6872 5.17408 76.6872Z" fill="#101432"/>
<path d="M5.48244 72.7741C5.46217 72.7741 5.43784 72.7741 5.41756 72.7701L2.89539 72.5065C2.56288 72.47 2.31958 72.1699 2.35202 71.8374C2.38852 71.5009 2.69264 71.2657 3.02109 71.2941L5.54326 71.5576C5.87577 71.5941 6.11907 71.8942 6.08663 72.2267C6.05419 72.543 5.79062 72.7741 5.48244 72.7741Z" fill="#101432"/>
<path d="M5.99323 68.8855C5.96079 68.8855 5.92835 68.8814 5.89591 68.8774L3.38996 68.48C3.05745 68.4273 2.83038 68.115 2.88309 67.7825C2.9358 67.45 3.25209 67.223 3.58054 67.2757L6.0865 67.6731C6.419 67.7258 6.64608 68.038 6.59336 68.3705C6.5447 68.6746 6.28924 68.8855 5.99323 68.8855Z" fill="#101432"/>
<path d="M6.71088 65.0292C6.67033 65.0292 6.62572 65.0251 6.58518 65.017L4.10355 64.4899C3.7751 64.4209 3.56424 64.0965 3.63318 63.7681C3.70211 63.4396 4.02651 63.2288 4.35496 63.2977L6.83658 63.8249C7.16503 63.8938 7.37589 64.2182 7.30696 64.5466C7.24208 64.8345 6.99067 65.0292 6.71088 65.0292Z" fill="#101432"/>
<path d="M7.62335 61.2135C7.57064 61.2135 7.51792 61.2054 7.46521 61.1932L5.01602 60.5363C4.69163 60.4511 4.50104 60.1146 4.5862 59.7902C4.67135 59.4658 5.00791 59.2752 5.33231 59.3604L7.78149 60.0173C8.10589 60.1024 8.29647 60.439 8.21132 60.7634C8.13833 61.0351 7.89098 61.2135 7.62335 61.2135Z" fill="#101432"/>
<path d="M8.73849 57.4544C8.67766 57.4544 8.61279 57.4463 8.55196 57.4261L6.13927 56.6434C5.81893 56.538 5.64457 56.1974 5.74999 55.8771C5.85542 55.5567 6.19604 55.3824 6.51638 55.4878L8.92907 56.2704C9.24941 56.3758 9.42377 56.7164 9.31835 57.0368C9.23319 57.2922 8.99395 57.4544 8.73849 57.4544Z" fill="#101432"/>
<path d="M10.0481 53.7564C9.97514 53.7564 9.90215 53.7442 9.82917 53.7159L7.46108 52.8076C7.14885 52.6859 6.99071 52.3331 7.11235 52.0209C7.234 51.7087 7.58678 51.5505 7.89901 51.6722L10.2671 52.5805C10.5793 52.7021 10.7375 53.0549 10.6158 53.3671C10.5226 53.6064 10.2914 53.7564 10.0481 53.7564Z" fill="#101432"/>
<path d="M11.5484 50.1312C11.4673 50.1312 11.3822 50.115 11.3011 50.0785L8.98568 49.0486C8.6775 48.9107 8.53963 48.5539 8.6775 48.2457C8.81537 47.9375 9.17626 47.7996 9.48038 47.9375L11.7958 48.9675C12.1039 49.1053 12.2418 49.4622 12.1039 49.7703C12.0026 49.9974 11.7795 50.1312 11.5484 50.1312Z" fill="#101432"/>
<path d="M13.2352 46.5912C13.142 46.5912 13.0487 46.5709 12.9595 46.5263L10.7009 45.3747C10.4008 45.2206 10.2832 44.8557 10.4333 44.5556C10.5873 44.2556 10.9523 44.138 11.2524 44.288L13.511 45.4396C13.811 45.5937 13.9286 45.9586 13.7786 46.2587C13.6732 46.4696 13.4582 46.5912 13.2352 46.5912Z" fill="#101432"/>
<path d="M15.1086 43.1447C15.0072 43.1447 14.9018 43.1204 14.8045 43.0636L12.6067 41.7944C12.3148 41.6282 12.2174 41.2551 12.3837 40.9632C12.5499 40.6712 12.923 40.5739 13.215 40.7401L15.4127 42.0093C15.7047 42.1756 15.802 42.5486 15.6358 42.8406C15.5222 43.0352 15.3195 43.1447 15.1086 43.1447Z" fill="#101432"/>
<path d="M17.1607 39.7992C17.0472 39.7992 16.9337 39.7668 16.8282 39.7019L14.6994 38.3192C14.4196 38.1367 14.3385 37.7596 14.521 37.4757C14.7034 37.196 15.0805 37.1149 15.3644 37.2973L17.4932 38.6801C17.773 38.8625 17.8541 39.2396 17.6717 39.5235C17.5541 39.7019 17.3594 39.7992 17.1607 39.7992Z" fill="#101432"/>
<path d="M19.3787 36.5676C19.253 36.5676 19.1313 36.5311 19.0218 36.45L16.97 34.9578C16.6984 34.7591 16.6375 34.382 16.8362 34.1063C17.0349 33.8346 17.412 33.7738 17.6878 33.9724L19.7396 35.4647C20.0112 35.6634 20.0721 36.0405 19.8734 36.3162C19.7558 36.4784 19.5693 36.5676 19.3787 36.5676Z" fill="#101432"/>
<path d="M21.7671 33.4532C21.6333 33.4532 21.4954 33.4086 21.386 33.3194L19.4153 31.7218C19.1557 31.5109 19.1152 31.1257 19.326 30.8662C19.5369 30.6067 19.9181 30.5661 20.1816 30.777L22.1523 32.3746C22.4119 32.5855 22.4524 32.9707 22.2416 33.2302C22.1199 33.3762 21.9455 33.4532 21.7671 33.4532Z" fill="#101432"/>
<path d="M24.3173 30.4689C24.1714 30.4689 24.0254 30.4162 23.9118 30.3148L22.0263 28.6198C21.7749 28.3968 21.7546 28.0116 21.9817 27.7602C22.2047 27.5088 22.5899 27.4885 22.8413 27.7156L24.7269 29.4105C24.9783 29.6336 24.9986 30.0188 24.7715 30.2702C24.6498 30.404 24.4836 30.4689 24.3173 30.4689Z" fill="#101432"/>
<path d="M27.0182 27.6264C26.8642 27.6264 26.706 27.5656 26.5884 27.448L24.7961 25.6557C24.5569 25.4165 24.5569 25.0313 24.7961 24.7961C25.0354 24.5609 25.4206 24.5568 25.6558 24.7961L27.4481 26.5884C27.6873 26.8276 27.6873 27.2128 27.4481 27.448C27.3264 27.5656 27.1723 27.6264 27.0182 27.6264Z" fill="#101432"/>
<path d="M29.8647 24.9258C29.6985 24.9258 29.5322 24.8568 29.4106 24.723L27.7116 22.8375C27.4885 22.5861 27.5088 22.2049 27.7562 21.9778C28.0076 21.7508 28.3887 21.7751 28.6158 22.0224L30.3148 23.908C30.5379 24.1594 30.5176 24.5406 30.2702 24.7676C30.1526 24.8731 30.0067 24.9258 29.8647 24.9258Z" fill="#101432"/>
<path d="M32.8449 22.3792C32.6665 22.3792 32.4921 22.3021 32.3705 22.1521L30.7728 20.1814C30.562 19.9219 30.6025 19.5367 30.862 19.3258C31.1256 19.1149 31.5068 19.1555 31.7176 19.415L33.3153 21.3857C33.5261 21.6452 33.4856 22.0305 33.2261 22.2413C33.1166 22.3346 32.9787 22.3792 32.8449 22.3792Z" fill="#101432"/>
<path d="M35.9592 19.991C35.7727 19.991 35.5862 19.9058 35.4686 19.7396L33.9764 17.6878C33.7777 17.4161 33.8385 17.0349 34.1102 16.8362C34.3819 16.6375 34.763 16.6984 34.9617 16.97L36.4539 19.0218C36.6526 19.2935 36.5918 19.6747 36.3201 19.8734C36.2066 19.9504 36.0809 19.991 35.9592 19.991Z" fill="#101432"/>
<path d="M39.191 17.7688C38.9923 17.7688 38.7977 17.6715 38.6801 17.4931L37.2973 15.3642C37.1149 15.0845 37.196 14.7073 37.4757 14.5249C37.7555 14.3424 38.1326 14.4235 38.3151 14.7033L39.6979 16.8321C39.8803 17.1119 39.7992 17.489 39.5194 17.6715C39.4181 17.7364 39.3045 17.7688 39.191 17.7688Z" fill="#101432"/>
<path d="M42.5365 15.7169C42.3256 15.7169 42.1229 15.6074 42.0093 15.4127L40.7401 13.215C40.5739 12.923 40.6712 12.554 40.9632 12.3837C41.2551 12.2174 41.6241 12.3148 41.7944 12.6067L43.0636 14.8045C43.2299 15.0965 43.1326 15.4655 42.8406 15.6358C42.7433 15.6925 42.6379 15.7169 42.5365 15.7169Z" fill="#101432"/>
<path d="M45.983 13.8476C45.76 13.8476 45.5492 13.726 45.4397 13.5151L44.2881 11.2565C44.134 10.9564 44.2556 10.5915 44.5557 10.4374C44.8558 10.2874 45.2207 10.405 45.3748 10.705L46.5264 12.9636C46.6805 13.2637 46.5588 13.6287 46.2588 13.7827C46.1696 13.8233 46.0763 13.8476 45.983 13.8476Z" fill="#101432"/>
<path d="M49.5227 12.1566C49.2916 12.1566 49.0686 12.0228 48.9672 11.7958L47.9373 9.48038C47.7994 9.17221 47.9373 8.81537 48.2454 8.6775C48.5536 8.53963 48.9105 8.6775 49.0483 8.98568L50.0783 11.3011C50.2161 11.6092 50.0783 11.9661 49.7701 12.1039C49.689 12.1404 49.6038 12.1566 49.5227 12.1566Z" fill="#101432"/>
<path d="M53.1479 10.6564C52.9046 10.6564 52.6735 10.5063 52.5802 10.2671L51.6719 7.89901C51.5503 7.58678 51.7084 7.234 52.0206 7.11235C52.3329 6.99071 52.6857 7.14885 52.8073 7.46108L53.7156 9.82917C53.8373 10.1414 53.6791 10.4942 53.3669 10.6158C53.2939 10.6442 53.2209 10.6564 53.1479 10.6564Z" fill="#101432"/>
<path d="M56.846 9.34663C56.5905 9.34663 56.3513 9.18444 56.2661 8.92492L55.4835 6.51223C55.3781 6.19189 55.5565 5.85127 55.8728 5.74584C56.1931 5.64042 56.5337 5.81478 56.6392 6.13512L57.4218 8.54781C57.5272 8.86815 57.3488 9.20877 57.0325 9.3142C56.9717 9.33852 56.9068 9.34663 56.846 9.34663Z" fill="#101432"/>
<path d="M60.605 8.23159C60.3374 8.23159 60.09 8.05318 60.017 7.78149L59.3601 5.33231C59.275 5.00791 59.4656 4.67541 59.7899 4.5862C60.1143 4.50104 60.4468 4.69163 60.5361 5.01602L61.193 7.46521C61.2781 7.7896 61.0875 8.12211 60.7631 8.21132C60.7104 8.22754 60.6577 8.23159 60.605 8.23159Z" fill="#101432"/>
<path d="M64.421 7.31515C64.1412 7.31515 63.8857 7.12051 63.829 6.83261L63.3018 4.35098C63.2329 4.02253 63.4397 3.69814 63.7722 3.6292C64.0966 3.56027 64.425 3.76707 64.494 4.09957L65.0211 6.5812C65.09 6.90965 64.8832 7.23405 64.5507 7.30298C64.5061 7.31109 64.4615 7.31515 64.421 7.31515Z" fill="#101432"/>
<path d="M68.2771 6.60147C67.9851 6.60147 67.7256 6.38656 67.677 6.0865L67.2796 3.58054C67.2269 3.24803 67.4539 2.9358 67.7864 2.88309C68.1149 2.83038 68.4312 3.05745 68.4839 3.38996L68.8813 5.89591C68.934 6.22842 68.7069 6.54065 68.3744 6.59336C68.342 6.60147 68.3095 6.60147 68.2771 6.60147Z" fill="#101432"/>
<path d="M72.1658 6.09044C71.8576 6.09044 71.5941 5.85931 71.5616 5.54708L71.2981 3.0249C71.2616 2.69239 71.5049 2.39233 71.8414 2.35583C72.1699 2.32745 72.474 2.56264 72.5105 2.8992L72.7741 5.42137C72.8106 5.75388 72.5673 6.05394 72.2307 6.09044C72.2104 6.09044 72.1861 6.09044 72.1658 6.09044Z" fill="#101432"/>
<path d="M76.0787 5.78225C75.7584 5.78225 75.4867 5.53085 75.4705 5.20645L75.3367 2.67211C75.3204 2.33555 75.5759 2.0517 75.9125 2.03143C76.2369 2.01926 76.5329 2.27067 76.5532 2.60723L76.687 5.14157C76.7032 5.47813 76.4477 5.76198 76.1112 5.78225C76.099 5.78225 76.0868 5.78225 76.0787 5.78225Z" fill="#101432"/>
</svg>
