<svg width="611" height="428" viewBox="0 0 611 428" fill="none" xmlns="http://www.w3.org/2000/svg">
<path fill-rule="evenodd" clip-rule="evenodd" d="M209.408 0H401.592C517.056 0 610.965 96.0043 611 214C611 331.996 517.056 428 401.592 428H209.408C93.944 428 0 331.996 0 214C0 96.0043 93.944 0 209.408 0ZM209.408 409.479H401.592C507.041 409.479 592.877 321.797 592.877 214C592.877 106.203 507.076 18.5209 401.592 18.5209H209.408C103.924 18.5209 18.1234 106.203 18.1234 214C18.1234 321.797 103.924 409.479 209.408 409.479ZM451.109 266.981V266.202V266.095H451.699H455.268V343.189H368.635H363.749H271.642H269.008H265.682V335.327C289.419 335.327 296.072 322.26 292.78 311.672L290.181 305.014C283.116 291.229 260.86 286.042 238.228 280.767C213.128 274.917 187.565 268.959 181.752 251.045C180.678 247.716 180.228 243.998 180.643 239.748L155.139 299.065C141.104 332.884 155 335.363 172.084 335.363V343.225H108.947H102.986V335.363H103.056L102.986 335.327C121.907 335.327 132.649 329.52 145.298 302.5L220.979 126.392C217.479 117.326 211.485 112.581 184.074 112.581V104.754H190.034H256.187L269.078 139.955L280.271 170.516C279.3 166.727 278.711 162.654 278.711 158.228C278.711 127.879 304.008 104.79 339.666 104.719H347.601V57.726H394.14L360.665 104.719L454.055 104.79V171.826H450C450 142.186 419.367 113.006 375.67 112.722C336.755 113.006 309.587 127.773 309.587 159.963C309.587 184.292 325.77 206.248 363.923 206.248H375.843C401.452 206.248 407.655 197.005 407.655 184.15H411.709V258.163H407.655C407.655 240.244 400.17 214.074 362.051 214.074H348.156V322.827C344.482 317.656 340.705 310.68 336.512 301.367L309.622 224.485V205.362C302.587 201.75 290.493 193.605 283.701 179.9L291.359 200.759L328.265 301.367C340.012 327.501 350.72 335.434 368.532 335.434V335.469H385.338C440.159 335.469 451.109 296.869 451.109 266.981ZM208.435 175.155L209.648 172.499C183.341 233.585 216.397 248.425 247.081 262.201C261.988 268.894 276.335 275.335 283.043 286.706L279.993 278.844L226.663 141.052L224.964 136.697L208.435 175.155Z" fill="#E5E8ED"/>
</svg>
