<svg width="250" height="177" viewBox="0 0 250 177" fill="none" xmlns="http://www.w3.org/2000/svg">
<g id="Logo" clip-path="url(#clip0_28_5695)">
<g id="Group">
<path id="Vector" d="M31.9956 142.623C33.7355 142.31 34.1309 141.705 34.7438 140.327L35.3963 138.451L35.7423 138.461C35.5544 140.044 35.3666 141.695 35.3468 142.994H28.417V142.652L29.1485 142.477C29.6725 142.34 29.6823 142.135 29.6823 138.676C29.6823 134.269 29.6033 134.22 29.0694 134.112L28.3774 133.956V133.614H33.4686V133.956L32.391 134.132C31.9363 134.21 31.8868 134.386 31.8868 138.138C31.8868 141.47 31.9165 142.222 31.9956 142.623Z" fill="#CBBBA0"/>
<path id="Vector_2" d="M44.2342 136.496L43.73 136.369V136.086C44.8075 135.871 46.0037 135.539 46.7056 135.226L46.8934 135.304C46.8736 136.584 46.8341 137.962 46.8341 139.369C46.8341 141.118 47.101 141.587 48.2774 141.587C49.0386 141.587 49.8294 141.196 49.8294 140.18C49.8294 136.711 49.7998 136.643 49.2758 136.477L48.6629 136.379V136.086C50.0271 135.822 51.0355 135.539 51.856 135.148L52.0438 135.207C51.9944 136.36 51.9944 136.848 51.9944 138.646C51.9944 142.056 52.024 142.34 52.5776 142.535L53.0522 142.691V142.994H49.9481C49.9481 142.183 49.9678 141.46 49.9678 140.786H49.8591C49.523 142.095 48.228 143.151 46.6957 143.151C45.371 143.151 44.6592 142.476 44.6592 141.177C44.6592 140.317 44.6889 139.33 44.6889 138.695C44.679 136.682 44.6296 136.604 44.2342 136.496Z" fill="#CBBBA0"/>
<path id="Vector_3" d="M64.3615 143.004H60.8125V142.711L60.9904 142.652C61.4155 142.437 62.5128 141.323 64.0451 139.369C62.4337 137.19 61.6132 136.057 61.198 135.783L60.9904 135.656V135.363H65.1227V135.656L64.7074 135.705C64.3615 135.754 64.2329 135.852 64.2626 136.086C64.2824 136.369 64.9744 137.317 65.9728 138.636C66.0025 138.666 66.0222 138.715 66.0519 138.744C66.6549 137.855 66.9812 137.005 66.9812 136.496C66.9812 136.008 66.8724 135.793 66.3188 135.715L65.9432 135.666V135.373H69.3636V135.666L69.2054 135.744C68.7902 135.959 67.7325 137.053 66.22 138.969C67.8511 141.177 68.8001 142.359 69.245 142.594L69.4625 142.721V143.014H65.1919V142.721L65.6565 142.662C66.0025 142.594 66.1112 142.555 66.1013 142.349C66.0717 142.056 65.3896 141.118 64.3417 139.77C64.2923 139.711 64.2626 139.662 64.2132 139.594C63.6299 140.483 63.2938 141.304 63.2938 141.89C63.2938 142.379 63.4025 142.574 63.9463 142.672L64.3713 142.721V143.004H64.3615Z" fill="#CBBBA0"/>
<path id="Vector_4" d="M77.4993 136.496L76.9951 136.369V136.086C78.0727 135.871 79.2787 135.539 79.9707 135.226L80.1585 135.304C80.1388 136.584 80.0992 137.962 80.0992 139.369C80.0992 141.118 80.3661 141.587 81.5425 141.587C82.3037 141.587 83.0946 141.196 83.0946 140.18C83.0946 136.711 83.0649 136.643 82.541 136.477L81.9281 136.379V136.086C83.2923 135.822 84.3006 135.539 85.1211 135.148L85.309 135.207C85.2595 136.36 85.2595 136.848 85.2595 138.646C85.2595 142.056 85.2892 142.34 85.8428 142.535L86.3173 142.691V142.994H83.2132C83.2132 142.183 83.233 141.46 83.233 140.786H83.1242C82.7881 142.095 81.4931 143.151 79.9608 143.151C78.6361 143.151 77.9145 142.476 77.9145 141.177C77.9145 140.317 77.9441 139.33 77.9441 138.695C77.9441 136.682 77.8947 136.604 77.4993 136.496Z" fill="#CBBBA0"/>
<path id="Vector_5" d="M94.8684 136.555L94.2654 136.369V136.086C95.2638 135.881 96.4205 135.539 97.1125 135.226L97.3003 135.304C97.32 136.272 97.32 137.278 97.3299 138.275L97.4387 138.285C97.8934 136.516 98.5755 135.177 100.118 135.109C100.167 135.812 100.197 136.858 100.197 137.63C99.8607 137.601 99.3763 137.552 99.0105 137.552C98.0318 137.552 97.4585 137.962 97.4585 139.037C97.4585 142.32 97.5178 142.369 97.9527 142.447L99.1588 142.652V142.994H94.2654V142.652L94.7893 142.516C95.2836 142.388 95.2935 142.213 95.2935 139.682C95.2935 136.79 95.2935 136.682 94.8684 136.555Z" fill="#CBBBA0"/>
<path id="Vector_6" d="M108.046 145.633C108.125 144.773 108.185 144.02 108.254 143.239C109.104 143.551 109.865 143.727 110.597 143.727C111.229 143.727 111.862 143.571 112.277 143.073C111.783 142.135 111.032 140.757 110.33 139.496C108.728 136.575 108.491 136.086 108.204 135.871L107.987 135.666V135.373H112.208V135.666L111.654 135.734C111.358 135.783 111.21 135.871 111.21 136.096C111.21 136.389 111.585 137.249 112.129 138.314C112.524 139.096 113.019 140.004 113.394 140.688C114.086 139.047 114.412 138.001 114.412 137.405C114.412 136.467 114.155 135.842 113.493 135.734L112.959 135.666V135.373H116.746V135.666L116.558 135.773C116.063 136.145 115.371 137.005 112.574 143.073C111.724 144.89 110.883 145.779 109.47 145.779C108.965 145.769 108.422 145.721 108.046 145.633Z" fill="#CBBBA0"/>
<path id="Vector_7" d="M138.267 142.623C140.006 142.31 140.402 141.705 141.015 140.327L141.667 138.451L142.013 138.461C141.825 140.044 141.638 141.695 141.618 142.994H134.688V142.652L135.42 142.477C135.943 142.34 135.963 142.135 135.963 138.676C135.963 134.269 135.884 134.22 135.34 134.112L134.648 133.956V133.614H139.74V133.956L138.662 134.132C138.207 134.21 138.158 134.386 138.158 138.138C138.158 141.47 138.188 142.222 138.267 142.623Z" fill="#CBBBA0"/>
<path id="Vector_8" d="M157.692 138.079L155.695 138.421L152.561 138.363V138.499C152.561 140.825 153.53 141.519 155.003 141.519C156.239 141.519 157.03 141.05 157.534 139.692L157.741 139.877C157.237 141.656 156.476 143.18 154.054 143.18C151.82 143.18 150.278 141.9 150.278 139.193C150.278 136.711 151.958 135.216 154.726 135.216C156.901 135.216 157.731 136.242 157.692 138.079ZM152.571 138.236L155.26 138.001C155.527 137.972 155.626 137.825 155.626 137.581C155.626 136.467 154.865 135.656 153.935 135.656C153.026 135.656 152.601 136.242 152.571 138.236Z" fill="#CBBBA0"/>
<path id="Vector_9" d="M168.784 145.818C166.51 145.818 165.6 145.349 165.6 144.695C165.6 144.011 166.658 143.522 167.815 143.219V143.141C166.648 143.082 166.006 142.691 166.006 142.183C166.006 141.353 167.271 140.903 168.536 140.747V140.64C166.925 140.376 166.085 139.447 166.085 138.187C166.085 136.653 167.558 135.353 169.98 135.353H174.191L173.983 136.79C172.827 136.321 171.581 135.822 170.326 135.637L170.296 135.764C171.631 136.174 173.4 136.878 173.4 138.392C173.4 139.584 172.006 140.727 169.525 140.727C168.052 140.806 167.548 141.118 167.548 141.402C167.548 141.587 167.736 141.714 168.082 141.714C169.189 141.714 171.037 141.509 172.352 141.509C173.608 141.509 174.092 141.929 174.092 142.789C174.102 143.942 172.787 145.818 168.784 145.818ZM173.272 143.678C173.272 143.336 173.064 143.102 172.273 143.102C171.196 143.102 169.723 143.151 168.606 143.151C167.894 143.18 167.528 143.512 167.528 143.874C167.528 144.362 168.032 144.675 170.395 144.675C172.678 144.665 173.272 144.314 173.272 143.678ZM170.108 140.376C171.008 140.376 171.265 140.043 171.265 138.715C171.265 136.809 170.504 135.725 169.347 135.725C168.635 135.725 168.24 136.086 168.24 137.513C168.24 139.467 168.942 140.376 170.108 140.376Z" fill="#CBBBA0"/>
<path id="Vector_10" d="M186.736 141.333L186.627 141.314C186.232 142.281 185.174 143.16 184.156 143.16C182.792 143.16 182.1 142.222 182.1 141.304C182.1 140.395 183.662 139.682 186.687 139.017C186.667 136.281 186.43 135.842 185.392 135.842C184.65 135.842 184.344 136.213 184.344 136.936C184.344 137.346 184.393 138.011 184.443 138.519L182.357 138.802C182.228 136.457 184.749 135.207 186.519 135.207C188.021 135.207 188.891 135.861 188.891 137.21C188.891 137.855 188.842 138.881 188.842 139.555C188.842 141.431 188.921 141.695 189.227 141.695C189.573 141.695 189.731 141.304 189.84 139.633L190.058 139.652C189.929 142.056 189.267 143.111 188.288 143.111C187.181 143.102 186.766 142.3 186.736 141.333ZM186.607 140.923C186.687 140.561 186.687 140.249 186.687 139.379C185.945 139.506 185.233 139.633 184.68 139.789C184.304 139.887 184.106 140.024 184.106 140.444C184.106 141.177 184.561 141.597 185.481 141.597C186.054 141.597 186.528 141.362 186.607 140.923Z" fill="#CBBBA0"/>
<path id="Vector_11" d="M200.259 138.245C200.259 140.483 201.258 141.499 202.711 141.499C203.917 141.499 204.599 141.108 205.034 139.877L205.242 140.053C204.817 141.665 204.075 143.16 201.683 143.16C199.567 143.16 198.075 141.89 198.075 139.33C198.075 136.809 200.131 135.216 202.691 135.216C203.976 135.216 204.827 135.509 205.163 135.685C205.034 136.526 204.955 137.561 204.906 138.812H204.589L204.204 137.776C203.65 136.34 202.701 135.715 201.624 135.715C200.685 135.734 200.259 136.418 200.259 138.245Z" fill="#CBBBA0"/>
<path id="Vector_12" d="M213.18 145.633C213.259 144.773 213.319 144.02 213.388 143.239C214.238 143.551 214.999 143.727 215.731 143.727C216.363 143.727 216.996 143.571 217.411 143.073C216.917 142.135 216.166 140.757 215.464 139.496C213.862 136.575 213.625 136.086 213.338 135.871L213.121 135.666V135.373H217.342V135.666L216.788 135.734C216.492 135.783 216.344 135.871 216.344 136.096C216.344 136.389 216.729 137.249 217.263 138.314C217.658 139.096 218.153 140.004 218.528 140.688C219.23 139.047 219.547 138.001 219.547 137.405C219.547 136.467 219.289 135.842 218.627 135.734L218.083 135.666V135.373H221.87V135.666L221.682 135.773C221.188 136.145 220.496 137.005 217.698 143.073C216.848 144.89 216.007 145.779 214.594 145.779C214.1 145.769 213.556 145.721 213.18 145.633Z" fill="#CBBBA0"/>
<path id="Vector_13" d="M71.5483 155.189H75.7992V155.756H72.2008V158.453H75.2258V159.029H72.2008V162.029H75.9573V162.605H71.5483V155.189Z" fill="#CBBBA0"/>
<path id="Vector_14" d="M78.2112 155.042V162.605H77.6477V155.345L78.2112 155.042Z" fill="#CBBBA0"/>
<path id="Vector_15" d="M80.0005 155.462C80.0005 155.345 80.04 155.247 80.129 155.16C80.2081 155.081 80.3168 155.032 80.4355 155.032C80.5541 155.032 80.6529 155.072 80.7419 155.16C80.821 155.238 80.8704 155.345 80.8704 155.462C80.8704 155.58 80.8309 155.677 80.7419 155.765C80.6628 155.843 80.564 155.892 80.4355 155.892C80.3168 155.892 80.218 155.853 80.129 155.765C80.04 155.687 80.0005 155.58 80.0005 155.462ZM80.7024 162.605H80.1488V157.28H80.7024V162.605Z" fill="#CBBBA0"/>
<path id="Vector_16" d="M83.6087 157.749V161.306C83.6087 161.951 83.8756 162.263 84.4095 162.263C84.6269 162.263 84.8642 162.205 85.1311 162.087L85.3288 162.42C85.0026 162.635 84.6566 162.752 84.3007 162.752C83.9251 162.752 83.6285 162.615 83.3912 162.351C83.154 162.087 83.0452 161.736 83.0452 161.306V157.749H82.2148V157.28H83.0551V156.059L83.5988 155.775V157.28H85.2992V157.749H83.6087Z" fill="#CBBBA0"/>
<path id="Vector_17" d="M90.8056 160.143H86.9106C86.9304 160.788 87.1578 161.315 87.6026 161.716C88.0079 162.068 88.5319 162.244 89.1547 162.244C89.6885 162.244 90.1433 162.107 90.5387 161.823L90.766 162.185C90.2915 162.556 89.6885 162.752 88.9669 162.752C88.1365 162.752 87.4642 162.468 86.9601 161.911C86.5053 161.403 86.2878 160.758 86.2878 159.977C86.2878 159.146 86.5251 158.452 87.0095 157.905C87.4544 157.407 87.9981 157.153 88.6307 157.153C89.4018 157.153 89.9752 157.485 90.3607 158.149C90.6573 158.648 90.7957 159.263 90.7957 159.986V160.143H90.8056ZM86.9304 159.674H90.2125C90.1927 159.029 90.0543 158.521 89.7775 158.169C89.5007 157.817 89.1151 157.632 88.6307 157.632C88.176 157.632 87.7806 157.817 87.4642 158.198C87.1479 158.579 86.97 159.078 86.9304 159.674Z" fill="#CBBBA0"/>
<path id="Vector_18" d="M97.1126 157.143C97.9233 157.143 98.5757 157.456 99.07 158.071C99.4753 158.599 99.673 159.224 99.673 159.957C99.673 160.798 99.416 161.491 98.892 162.019C98.4274 162.507 97.8343 162.742 97.1126 162.742C96.2921 162.742 95.6397 162.429 95.1553 161.814C94.75 161.296 94.5522 160.68 94.5522 159.947C94.5522 159.097 94.8093 158.404 95.3332 157.856C95.8077 157.387 96.4009 157.143 97.1126 157.143ZM97.1126 157.632C96.4898 157.632 95.9956 157.886 95.6298 158.394C95.3233 158.814 95.175 159.332 95.175 159.957C95.175 160.651 95.3728 161.218 95.7682 161.657C96.1241 162.058 96.5689 162.253 97.1126 162.253C97.7255 162.253 98.2198 161.999 98.5856 161.491C98.8921 161.071 99.0502 160.553 99.0502 159.957C99.0502 159.244 98.8525 158.667 98.467 158.237C98.1111 157.837 97.6662 157.632 97.1126 157.632Z" fill="#CBBBA0"/>
<path id="Vector_19" d="M101.581 162.605H101.176V155.345L101.729 155.042V157.827C102.125 157.378 102.658 157.143 103.321 157.143C104.141 157.143 104.784 157.436 105.239 158.022C105.614 158.511 105.812 159.107 105.812 159.84C105.812 160.817 105.535 161.569 104.991 162.087C104.537 162.527 103.983 162.742 103.311 162.742C102.649 162.742 102.105 162.507 101.69 162.038L101.581 162.605ZM101.729 158.482V161.452C102.036 161.98 102.56 162.253 103.291 162.253C103.864 162.253 104.319 162.029 104.675 161.589C105.011 161.179 105.169 160.631 105.169 159.967C105.169 159.205 104.972 158.609 104.576 158.198C104.23 157.837 103.785 157.661 103.252 157.661C102.925 157.661 102.619 157.739 102.342 157.895C102.065 158.042 101.858 158.237 101.729 158.482Z" fill="#CBBBA0"/>
<path id="Vector_20" d="M107.908 157.28V163.397C107.908 163.827 107.789 164.178 107.562 164.442C107.324 164.706 107.028 164.843 106.652 164.843C106.286 164.843 105.94 164.735 105.624 164.511L105.822 164.178C106.089 164.296 106.336 164.354 106.543 164.354C107.077 164.354 107.354 164.032 107.354 163.397V157.28H107.908ZM107.196 155.462C107.196 155.345 107.235 155.247 107.324 155.16C107.403 155.081 107.512 155.032 107.631 155.032C107.749 155.032 107.848 155.072 107.937 155.16C108.016 155.238 108.066 155.345 108.066 155.462C108.066 155.58 108.026 155.677 107.937 155.765C107.858 155.843 107.749 155.892 107.631 155.892C107.512 155.892 107.413 155.853 107.324 155.765C107.245 155.687 107.196 155.58 107.196 155.462Z" fill="#CBBBA0"/>
<path id="Vector_21" d="M114.067 160.143H110.172C110.191 160.788 110.419 161.315 110.864 161.716C111.269 162.068 111.793 162.244 112.416 162.244C112.949 162.244 113.404 162.107 113.8 161.823L114.027 162.185C113.553 162.556 112.949 162.752 112.228 162.752C111.397 162.752 110.725 162.468 110.221 161.911C109.766 161.403 109.549 160.758 109.549 159.977C109.549 159.146 109.786 158.452 110.27 157.905C110.715 157.407 111.259 157.153 111.892 157.153C112.663 157.153 113.236 157.485 113.622 158.149C113.918 158.648 114.057 159.263 114.057 159.986V160.143H114.067ZM110.191 159.674H113.473C113.454 159.029 113.315 158.521 113.038 158.169C112.762 157.817 112.376 157.632 111.892 157.632C111.437 157.632 111.042 157.817 110.725 158.198C110.409 158.579 110.231 159.078 110.191 159.674Z" fill="#CBBBA0"/>
<path id="Vector_22" d="M119.612 162.224C119.167 162.576 118.594 162.752 117.892 162.752C117.042 162.752 116.37 162.459 115.866 161.882C115.431 161.374 115.213 160.739 115.213 159.967C115.213 159.107 115.49 158.404 116.053 157.856C116.548 157.378 117.131 157.143 117.823 157.143C118.515 157.143 119.069 157.309 119.494 157.641L119.266 157.974C118.871 157.759 118.446 157.641 118.001 157.641C117.289 157.641 116.736 157.895 116.34 158.394C116.014 158.804 115.846 159.342 115.846 159.996C115.846 160.7 116.053 161.257 116.488 161.667C116.884 162.048 117.418 162.244 118.09 162.244C118.545 162.244 118.989 162.117 119.405 161.872L119.612 162.224Z" fill="#CBBBA0"/>
<path id="Vector_23" d="M121.995 157.749V161.306C121.995 161.951 122.262 162.263 122.795 162.263C123.013 162.263 123.25 162.205 123.517 162.087L123.715 162.42C123.389 162.635 123.043 162.752 122.687 162.752C122.311 162.752 122.014 162.615 121.777 162.351C121.54 162.087 121.431 161.736 121.431 161.306V157.749H120.601V157.28H121.441V156.059L121.985 155.775V157.28H123.685V157.749H121.995Z" fill="#CBBBA0"/>
<path id="Vector_24" d="M127.857 157.925C127.481 157.739 127.046 157.641 126.572 157.641C126.216 157.641 125.939 157.72 125.732 157.866C125.524 158.013 125.425 158.228 125.425 158.492C125.425 158.775 125.514 158.99 125.692 159.136C125.87 159.283 126.216 159.439 126.74 159.605C127.363 159.801 127.808 160.016 128.065 160.26C128.322 160.504 128.45 160.827 128.45 161.237C128.45 161.687 128.272 162.048 127.926 162.322C127.58 162.605 127.135 162.742 126.582 162.742C125.9 162.742 125.307 162.566 124.792 162.214L124.951 161.902C125.415 162.126 125.91 162.244 126.433 162.244C127.363 162.244 127.837 161.902 127.837 161.208C127.837 160.954 127.738 160.739 127.541 160.583C127.343 160.426 126.987 160.26 126.463 160.104C125.356 159.772 124.802 159.234 124.802 158.511C124.802 158.11 124.961 157.778 125.277 157.524C125.593 157.27 125.999 157.133 126.503 157.133C127.066 157.133 127.58 157.29 128.045 157.593L127.857 157.925Z" fill="#CBBBA0"/>
<path id="Vector_25" d="M129.864 163.592C130.16 163.338 130.299 163.064 130.299 162.771C130.299 162.732 130.289 162.674 130.279 162.595C130.18 162.674 130.091 162.713 130.002 162.713C129.874 162.713 129.765 162.664 129.676 162.576C129.587 162.488 129.538 162.371 129.538 162.244C129.538 161.951 129.696 161.794 130.012 161.794C130.18 161.794 130.319 161.872 130.417 162.019C130.526 162.165 130.576 162.351 130.576 162.566C130.576 163.055 130.358 163.446 129.913 163.739L129.864 163.592Z" fill="#CBBBA0"/>
<path id="Vector_26" d="M139.591 155.189L141.479 161.736L143.585 155.189H144.327L141.796 162.605H141.143L139.226 156.098L137.318 162.605H136.695L134.125 155.189H134.866L136.981 161.736L138.85 155.189H139.591Z" fill="#CBBBA0"/>
<path id="Vector_27" d="M149.18 160.143H145.285C145.305 160.788 145.533 161.315 145.977 161.716C146.383 162.068 146.907 162.244 147.529 162.244C148.063 162.244 148.518 162.107 148.913 161.823L149.141 162.185C148.666 162.556 148.063 162.752 147.342 162.752C146.511 162.752 145.839 162.468 145.335 161.911C144.88 161.403 144.663 160.758 144.663 159.977C144.663 159.146 144.9 158.452 145.384 157.905C145.829 157.407 146.373 157.153 147.005 157.153C147.777 157.153 148.35 157.485 148.735 158.149C149.032 158.648 149.17 159.263 149.17 159.986V160.143H149.18ZM145.305 159.674H148.587C148.567 159.029 148.429 158.521 148.152 158.169C147.875 157.817 147.49 157.632 147.005 157.632C146.551 157.632 146.155 157.817 145.839 158.198C145.523 158.579 145.345 159.078 145.305 159.674Z" fill="#CBBBA0"/>
<path id="Vector_28" d="M154.499 162.605H154.093L153.985 162.009C153.451 162.498 152.828 162.752 152.097 162.752C151.563 162.752 151.138 162.605 150.811 162.302C150.485 162.009 150.317 161.618 150.317 161.13C150.317 159.908 151.187 159.303 152.927 159.303H153.935V159.205C153.935 158.159 153.431 157.641 152.413 157.641C151.899 157.641 151.395 157.817 150.891 158.169L150.663 157.837C151.138 157.368 151.76 157.133 152.541 157.133C153.164 157.133 153.649 157.319 153.985 157.7C154.321 158.081 154.489 158.619 154.489 159.322V162.605H154.499ZM153.935 159.772H153.026C152.284 159.772 151.751 159.869 151.434 160.065C151.118 160.26 150.95 160.592 150.95 161.052C150.95 161.423 151.068 161.716 151.296 161.931C151.533 162.146 151.849 162.244 152.265 162.244C152.601 162.244 152.927 162.165 153.253 161.999C153.579 161.843 153.807 161.648 153.945 161.423V159.772H153.935Z" fill="#CBBBA0"/>
<path id="Vector_29" d="M156.862 157.886C157.415 157.397 157.939 157.143 158.443 157.143C158.977 157.143 159.382 157.299 159.649 157.612L159.185 157.974C158.928 157.759 158.631 157.661 158.305 157.661C157.811 157.661 157.346 157.925 156.901 158.462V162.615H156.338V157.29H156.802L156.862 157.886Z" fill="#CBBBA0"/>
<path id="Vector_30" d="M164.385 162.605H163.979L163.87 162.009C163.337 162.498 162.714 162.752 161.982 162.752C161.448 162.752 161.023 162.605 160.697 162.302C160.371 162.009 160.203 161.618 160.203 161.13C160.203 159.908 161.073 159.303 162.813 159.303H163.821V159.205C163.821 158.159 163.317 157.641 162.299 157.641C161.785 157.641 161.28 157.817 160.776 158.169L160.549 157.837C161.023 157.368 161.646 157.133 162.427 157.133C163.05 157.133 163.534 157.319 163.87 157.7C164.207 158.081 164.375 158.619 164.375 159.322V162.605H164.385ZM163.831 159.772H162.921C162.18 159.772 161.646 159.869 161.33 160.065C161.014 160.26 160.845 160.592 160.845 161.052C160.845 161.423 160.964 161.716 161.191 161.931C161.429 162.146 161.745 162.244 162.16 162.244C162.496 162.244 162.823 162.165 163.149 161.999C163.475 161.843 163.702 161.648 163.841 161.423V159.772H163.831Z" fill="#CBBBA0"/>
<path id="Vector_31" d="M166.648 162.605H166.243V155.345L166.797 155.042V157.827C167.192 157.378 167.726 157.143 168.388 157.143C169.209 157.143 169.851 157.436 170.306 158.022C170.691 158.511 170.879 159.107 170.879 159.84C170.879 160.817 170.612 161.569 170.059 162.087C169.604 162.527 169.05 162.742 168.378 162.742C167.716 162.742 167.172 162.507 166.757 162.038L166.648 162.605ZM166.797 158.482V161.452C167.103 161.98 167.627 162.253 168.358 162.253C168.932 162.253 169.387 162.029 169.742 161.589C170.079 161.179 170.237 160.631 170.237 159.967C170.237 159.205 170.039 158.609 169.644 158.198C169.298 157.837 168.853 157.661 168.309 157.661C167.983 157.661 167.676 157.739 167.4 157.895C167.133 158.042 166.925 158.237 166.797 158.482Z" fill="#CBBBA0"/>
<path id="Vector_32" d="M172.926 155.042V162.605H172.372V155.345L172.926 155.042Z" fill="#CBBBA0"/>
<path id="Vector_33" d="M178.946 160.143H175.051C175.071 160.788 175.298 161.315 175.743 161.716C176.148 162.068 176.672 162.244 177.295 162.244C177.829 162.244 178.284 162.107 178.679 161.823L178.906 162.185C178.432 162.556 177.829 162.752 177.107 162.752C176.277 162.752 175.605 162.468 175.1 161.911C174.646 161.403 174.428 160.758 174.428 159.977C174.428 159.146 174.665 158.452 175.15 157.905C175.595 157.407 176.138 157.153 176.771 157.153C177.542 157.153 178.116 157.485 178.501 158.149C178.798 158.648 178.936 159.263 178.936 159.986V160.143H178.946ZM175.061 159.674H178.343C178.323 159.029 178.185 158.521 177.908 158.169C177.631 157.817 177.246 157.632 176.761 157.632C176.306 157.632 175.911 157.817 175.595 158.198C175.278 158.579 175.1 159.078 175.061 159.674Z" fill="#CBBBA0"/>
<path id="Vector_34" d="M97.2212 166.914H101.462V167.481H97.8736V170.178H100.899V170.754H97.8736V173.754H101.62V174.331H97.2212V166.914Z" fill="#CBBBA0"/>
<path id="Vector_35" d="M106.959 169.005L105.189 171.526L107.048 174.331H106.425L104.833 171.956L103.212 174.331H102.569L104.467 171.565L102.826 169.005H103.459L104.833 171.136L106.326 169.005H106.959Z" fill="#CBBBA0"/>
<path id="Vector_36" d="M108.619 169.005L108.718 169.611C109.143 169.113 109.766 168.859 110.577 168.859C111.338 168.859 111.941 169.152 112.376 169.738C112.752 170.227 112.93 170.833 112.93 171.556C112.93 172.513 112.663 173.256 112.119 173.793C111.674 174.243 111.14 174.458 110.508 174.458C109.746 174.458 109.143 174.223 108.708 173.754V176.49H108.155V168.996H108.619V169.005ZM108.708 170.256V173.168C108.857 173.403 109.084 173.598 109.381 173.745C109.677 173.901 109.994 173.969 110.31 173.969C110.913 173.969 111.407 173.754 111.783 173.324C112.129 172.914 112.307 172.367 112.307 171.683C112.307 170.901 112.109 170.305 111.714 169.904C111.378 169.553 110.943 169.377 110.399 169.377C110.063 169.377 109.746 169.455 109.43 169.621C109.114 169.787 108.876 169.992 108.708 170.256Z" fill="#CBBBA0"/>
<path id="Vector_37" d="M118.594 171.868H114.699C114.719 172.513 114.946 173.041 115.391 173.442C115.797 173.793 116.32 173.969 116.943 173.969C117.477 173.969 117.932 173.832 118.327 173.549L118.555 173.911C118.08 174.282 117.477 174.477 116.755 174.477C115.925 174.477 115.253 174.194 114.749 173.637C114.294 173.129 114.076 172.484 114.076 171.702C114.076 170.872 114.314 170.178 114.798 169.631C115.243 169.132 115.787 168.878 116.419 168.878C117.19 168.878 117.764 169.211 118.149 169.875C118.446 170.373 118.584 170.989 118.584 171.712V171.868H118.594ZM114.719 171.399H118.001C117.981 170.754 117.843 170.246 117.566 169.895C117.289 169.543 116.904 169.357 116.419 169.357C115.965 169.357 115.569 169.543 115.253 169.924C114.936 170.305 114.759 170.803 114.719 171.399Z" fill="#CBBBA0"/>
<path id="Vector_38" d="M120.601 169.611C121.154 169.123 121.678 168.869 122.183 168.869C122.716 168.869 123.122 169.025 123.389 169.338L122.924 169.699C122.667 169.484 122.37 169.387 122.044 169.387C121.55 169.387 121.085 169.65 120.64 170.188V174.341H120.077V169.015H120.542L120.601 169.611Z" fill="#CBBBA0"/>
<path id="Vector_39" d="M124.367 167.188C124.367 167.071 124.407 166.973 124.496 166.885C124.575 166.807 124.674 166.758 124.793 166.758C124.911 166.758 125.01 166.797 125.099 166.885C125.188 166.963 125.227 167.071 125.227 167.188C125.227 167.305 125.188 167.403 125.099 167.491C125.02 167.569 124.911 167.618 124.793 167.618C124.674 167.618 124.575 167.579 124.496 167.491C124.417 167.413 124.367 167.305 124.367 167.188ZM125.069 174.331H124.516V169.005H125.069V174.331Z" fill="#CBBBA0"/>
<path id="Vector_40" d="M131.179 171.868H127.284C127.303 172.513 127.531 173.041 127.976 173.442C128.391 173.793 128.905 173.969 129.528 173.969C130.062 173.969 130.516 173.832 130.912 173.549L131.139 173.911C130.665 174.282 130.062 174.477 129.34 174.477C128.51 174.477 127.837 174.194 127.333 173.637C126.888 173.129 126.661 172.484 126.661 171.702C126.661 170.872 126.898 170.178 127.383 169.631C127.827 169.132 128.371 168.878 129.004 168.878C129.775 168.878 130.348 169.211 130.734 169.875C131.03 170.373 131.179 170.989 131.179 171.712V171.868ZM127.303 171.399H130.585C130.566 170.754 130.427 170.246 130.151 169.895C129.874 169.543 129.488 169.357 129.004 169.357C128.549 169.357 128.154 169.543 127.837 169.924C127.521 170.305 127.343 170.803 127.303 171.399Z" fill="#CBBBA0"/>
<path id="Vector_41" d="M133.185 169.611C133.729 169.123 134.352 168.869 135.034 168.869C135.676 168.869 136.181 169.074 136.537 169.494C136.883 169.885 137.06 170.432 137.06 171.145V174.331H136.497V171.204C136.497 169.983 135.963 169.377 134.886 169.377C134.184 169.377 133.64 169.65 133.225 170.188V174.341H132.661V169.015H133.126L133.185 169.611Z" fill="#CBBBA0"/>
<path id="Vector_42" d="M142.903 173.95C142.458 174.301 141.885 174.477 141.183 174.477C140.333 174.477 139.661 174.184 139.156 173.608C138.721 173.1 138.504 172.464 138.504 171.693C138.504 170.833 138.781 170.129 139.344 169.582C139.838 169.103 140.422 168.869 141.114 168.869C141.806 168.869 142.359 169.035 142.784 169.367L142.557 169.699C142.162 169.484 141.737 169.367 141.292 169.367C140.58 169.367 140.026 169.621 139.631 170.119C139.305 170.53 139.137 171.067 139.137 171.722C139.137 172.425 139.344 172.982 139.779 173.393C140.175 173.774 140.708 173.969 141.381 173.969C141.835 173.969 142.28 173.842 142.695 173.598L142.903 173.95Z" fill="#CBBBA0"/>
<path id="Vector_43" d="M148.488 171.868H144.593C144.613 172.513 144.841 173.041 145.285 173.442C145.691 173.793 146.215 173.969 146.838 173.969C147.371 173.969 147.826 173.832 148.222 173.549L148.449 173.911C147.974 174.282 147.371 174.477 146.65 174.477C145.819 174.477 145.147 174.194 144.643 173.637C144.188 173.129 143.971 172.484 143.971 171.702C143.971 170.872 144.208 170.178 144.692 169.631C145.137 169.132 145.681 168.878 146.314 168.878C147.085 168.878 147.658 169.211 148.044 169.875C148.34 170.373 148.479 170.989 148.479 171.712V171.868H148.488ZM144.613 171.399H147.895C147.876 170.754 147.737 170.246 147.46 169.895C147.184 169.543 146.798 169.357 146.314 169.357C145.859 169.357 145.463 169.543 145.147 169.924C144.831 170.305 144.653 170.803 144.613 171.399Z" fill="#CBBBA0"/>
<path id="Vector_44" d="M152.69 169.65C152.314 169.465 151.879 169.367 151.405 169.367C151.049 169.367 150.772 169.445 150.564 169.592C150.357 169.738 150.258 169.953 150.258 170.217C150.258 170.5 150.347 170.715 150.525 170.862C150.703 171.009 151.049 171.165 151.573 171.331C152.196 171.526 152.64 171.741 152.897 171.986C153.154 172.23 153.283 172.552 153.283 172.963C153.283 173.412 153.105 173.774 152.759 174.047C152.413 174.331 151.968 174.468 151.415 174.468C150.732 174.468 150.139 174.292 149.625 173.94L149.783 173.627C150.248 173.852 150.742 173.969 151.266 173.969C152.196 173.969 152.67 173.627 152.67 172.934C152.67 172.679 152.571 172.464 152.373 172.308C152.176 172.152 151.82 171.986 151.296 171.829C150.189 171.497 149.635 170.96 149.635 170.237C149.635 169.836 149.793 169.504 150.11 169.25C150.426 168.996 150.831 168.859 151.335 168.859C151.899 168.859 152.413 169.015 152.878 169.318L152.69 169.65Z" fill="#CBBBA0"/>
<path id="Vector_45" d="M53.3982 16.8181H57.6391V17.3946H54.0506V20.0915H57.0757V20.668H54.0506V23.6678H57.7973V24.2443H53.3982V16.8181Z" fill="#CBBBA0"/>
<path id="Vector_46" d="M63.0861 17.629C62.6314 17.3749 62.1173 17.2577 61.5439 17.2577C61.0101 17.2577 60.6048 17.3651 60.3181 17.5899C60.0314 17.8048 59.8831 18.1175 59.8831 18.5181C59.8831 19.0751 60.3774 19.5344 61.366 19.9057C62.2557 20.2379 62.8587 20.5799 63.1948 20.9316C63.531 21.2834 63.699 21.772 63.699 22.3778C63.699 23.0227 63.442 23.5308 62.9378 23.9119C62.5127 24.2343 61.9987 24.3907 61.3957 24.3907C60.6246 24.3907 59.8733 24.1562 59.1516 23.6871L59.4284 23.2963C60.071 23.6383 60.6839 23.8142 61.2671 23.8142C61.801 23.8142 62.226 23.6871 62.5424 23.4233C62.8587 23.1595 63.0268 22.8077 63.0268 22.3778C63.0268 21.9283 62.8983 21.557 62.661 21.2834C62.404 21.0098 61.969 20.7753 61.3759 20.5701C60.6048 20.3161 60.0413 20.0229 59.6953 19.7005C59.3493 19.378 59.1714 18.9872 59.1714 18.5181C59.1714 17.9514 59.3988 17.5019 59.8634 17.1599C60.2687 16.8473 60.8025 16.6909 61.4649 16.6909C62.1766 16.6909 62.8192 16.8766 63.3827 17.2577L63.0861 17.629Z" fill="#CBBBA0"/>
<path id="Vector_47" d="M66.734 17.3946H64.4109V16.8181H69.9073V17.3946H67.3865V24.2443H66.734V17.3946Z" fill="#CBBBA0"/>
<path id="Vector_48" d="M71.2715 16.818C72.003 16.7202 72.5764 16.6812 72.9817 16.6812C74.2471 16.6812 75.2159 17.0622 75.8881 17.8342C76.4615 18.4888 76.758 19.3683 76.758 20.4626C76.758 21.7818 76.4021 22.7882 75.6805 23.4722C75.0379 24.078 74.1581 24.3907 73.0509 24.3907C72.6159 24.3907 72.0228 24.3418 71.2814 24.2539V16.818H71.2715ZM71.9239 23.7849C72.2996 23.8337 72.6753 23.8533 73.0311 23.8533C74.0395 23.8533 74.8007 23.5406 75.3246 22.9054C75.809 22.3289 76.0463 21.5277 76.0463 20.5017C76.0463 19.3878 75.72 18.5279 75.0577 17.9319C74.5239 17.4433 73.8319 17.2088 73.0015 17.2088C72.5171 17.2088 72.1612 17.2283 71.9239 17.2772V23.7849Z" fill="#CBBBA0"/>
<path id="Vector_49" d="M78.7943 24.3418C78.5175 24.3222 78.3792 24.1854 78.3792 23.9216C78.3792 23.648 78.5175 23.5112 78.7943 23.5112C79.0711 23.5112 79.2095 23.648 79.2095 23.9216C79.2095 24.1952 79.0711 24.3418 78.7943 24.3418Z" fill="#CBBBA0"/>
<path id="Vector_50" d="M173.815 23.3941C173.815 23.1791 173.835 22.9348 173.875 22.6612C173.914 22.3876 174.003 22.114 174.142 21.8404C174.28 21.5668 174.478 21.2932 174.745 21.0294C175.012 20.7656 175.367 20.5311 175.812 20.3161C176.03 20.2086 176.267 20.1012 176.524 19.9839C176.781 19.8666 177.008 19.7494 177.226 19.6028C177.443 19.4562 177.621 19.2901 177.76 19.1045C177.908 18.9188 177.977 18.6941 177.977 18.4205C177.977 18.2642 177.938 18.1078 177.869 17.9515C177.799 17.7951 177.691 17.6583 177.552 17.5313C177.414 17.4043 177.236 17.3066 177.028 17.2284C176.811 17.1502 176.564 17.1111 176.277 17.1111C176 17.1111 175.753 17.1502 175.536 17.2284C175.318 17.3066 175.13 17.4043 174.972 17.5118C174.814 17.6193 174.675 17.7267 174.567 17.844C174.458 17.9515 174.379 18.0394 174.339 18.098L173.934 17.6877C173.964 17.6583 174.043 17.5802 174.161 17.4629C174.28 17.3457 174.448 17.2186 174.656 17.0916C174.863 16.9646 175.11 16.8473 175.397 16.7398C175.684 16.6324 176.01 16.5835 176.366 16.5835C176.722 16.5835 177.038 16.6324 177.325 16.7301C177.602 16.8278 177.839 16.9646 178.037 17.1307C178.224 17.2968 178.373 17.4922 178.472 17.717C178.57 17.9417 178.62 18.1762 178.62 18.4107C178.62 18.7332 178.541 19.0068 178.383 19.2413C178.224 19.4758 178.027 19.681 177.799 19.8569C177.572 20.0328 177.335 20.1793 177.078 20.2966C176.831 20.4138 176.613 20.5115 176.435 20.5897C175.822 20.8438 175.348 21.1564 175.021 21.5082C174.695 21.86 174.517 22.3095 174.507 22.8469H178.748V23.3843H173.815V23.3941Z" fill="#CBBBA0"/>
<path id="Vector_51" d="M185.886 19.9645C185.886 20.4823 185.817 20.9514 185.668 21.3911C185.52 21.8308 185.313 22.2021 185.055 22.5148C184.798 22.8274 184.482 23.0815 184.116 23.2574C183.76 23.4333 183.365 23.5212 182.94 23.5212C182.515 23.5212 182.119 23.4333 181.764 23.2574C181.408 23.0815 181.091 22.8372 180.834 22.5148C180.577 22.2021 180.37 21.821 180.221 21.3911C180.073 20.9611 180.004 20.4823 180.004 19.9645C180.004 19.4466 180.073 18.9776 180.221 18.5379C180.37 18.1079 180.567 17.7268 180.834 17.4142C181.091 17.1015 181.408 16.8474 181.764 16.6715C182.119 16.4957 182.515 16.3979 182.94 16.3979C183.365 16.3979 183.76 16.4859 184.116 16.6715C184.472 16.8474 184.789 17.1015 185.055 17.4142C185.322 17.7268 185.53 18.1079 185.668 18.5379C185.807 18.9678 185.886 19.4466 185.886 19.9645ZM185.273 19.9645C185.273 19.515 185.214 19.1144 185.105 18.7431C184.986 18.3717 184.828 18.0591 184.621 17.7952C184.413 17.5314 184.166 17.3262 183.879 17.1796C183.592 17.0331 183.276 16.9549 182.92 16.9549C182.574 16.9549 182.258 17.0331 181.961 17.1796C181.665 17.3262 181.427 17.5314 181.22 17.7952C181.012 18.0591 180.854 18.3717 180.735 18.7431C180.617 19.1144 180.567 19.5248 180.567 19.9645C180.567 20.4139 180.627 20.8146 180.735 21.1859C180.844 21.5572 181.012 21.8699 181.22 22.1337C181.427 22.3975 181.675 22.6027 181.961 22.7493C182.248 22.8958 182.564 22.9642 182.92 22.9642C183.266 22.9642 183.583 22.8958 183.879 22.7493C184.166 22.6027 184.413 22.3975 184.621 22.1337C184.828 21.8699 184.986 21.5474 185.105 21.1859C185.224 20.8243 185.273 20.4042 185.273 19.9645Z" fill="#CBBBA0"/>
<path id="Vector_52" d="M191.145 22.8566V23.394H187.359V22.8566H189.039V17.4433C188.97 17.541 188.861 17.6387 188.703 17.7462C188.545 17.8537 188.387 17.9612 188.189 18.0589C188.001 18.1566 187.804 18.2348 187.606 18.3032C187.408 18.3716 187.23 18.4009 187.072 18.4009V17.8146C187.27 17.8146 187.477 17.7658 187.705 17.6583C187.922 17.5508 188.13 17.4335 188.328 17.2967C188.525 17.1599 188.683 17.0329 188.812 16.9157C188.94 16.7984 189.02 16.7202 189.029 16.7007H189.623V22.8566H191.145Z" fill="#CBBBA0"/>
<path id="Vector_53" d="M195.317 20.6288C195.851 20.7167 196.286 20.9512 196.612 21.3421C196.938 21.7329 197.096 22.2117 197.096 22.7882C197.096 23.14 197.027 23.4624 196.898 23.7458C196.77 24.0292 196.582 24.2734 196.355 24.4786C196.118 24.6838 195.841 24.8402 195.515 24.9574C195.188 25.0747 194.832 25.1235 194.437 25.1235C193.844 25.1235 193.32 24.9965 192.875 24.7522C192.42 24.4982 192.094 24.1562 191.886 23.7165L192.331 23.3647C192.489 23.736 192.747 24.0389 193.112 24.2539C193.478 24.4689 193.923 24.5861 194.457 24.5861C195.08 24.5861 195.574 24.4298 195.94 24.1073C196.305 23.7849 196.483 23.3452 196.483 22.7687C196.483 22.2019 196.295 21.7427 195.92 21.4105C195.544 21.0782 195.01 20.9024 194.328 20.9024H194.042V20.3845H194.348C194.991 20.3845 195.475 20.2379 195.821 19.9545C196.167 19.6712 196.335 19.2901 196.335 18.8113C196.335 18.5573 196.286 18.3227 196.187 18.1273C196.088 17.9319 195.959 17.756 195.791 17.6192C195.623 17.4824 195.426 17.3749 195.198 17.2968C194.971 17.2186 194.724 17.1893 194.447 17.1893C193.972 17.1893 193.557 17.2968 193.201 17.5117C192.845 17.7267 192.588 18.0198 192.42 18.3814L192.015 18.0492C192.114 17.8342 192.242 17.6485 192.401 17.4726C192.559 17.2968 192.747 17.1502 192.964 17.0232C193.181 16.8961 193.419 16.7984 193.676 16.7398C193.933 16.6714 194.2 16.6421 194.486 16.6421C194.842 16.6421 195.169 16.6909 195.465 16.7984C195.762 16.9059 196.019 17.0427 196.236 17.2284C196.454 17.414 196.622 17.6388 196.75 17.8928C196.879 18.1469 196.938 18.44 196.938 18.7527C196.938 18.997 196.899 19.2217 196.829 19.4367C196.75 19.6516 196.641 19.8373 196.503 20.0034C196.365 20.1695 196.187 20.3063 195.989 20.4236C195.781 20.5213 195.554 20.5995 195.317 20.6288Z" fill="#CBBBA0"/>
<path id="Vector_54" d="M139.423 26.0128V26.0909C139.423 28.9539 138.336 32.6572 132.909 32.6572H131.248C129.478 32.6572 128.42 31.8951 127.254 29.3936L123.596 19.7494L122.835 17.756C123.507 19.0654 124.703 19.8471 125.405 20.1989V22.0359L128.065 29.4034C128.48 30.2926 128.855 30.9668 129.221 31.4554V21.0099H130.595C134.372 21.0099 135.113 23.5211 135.113 25.2311H135.518V18.1371H135.113C135.113 19.3683 134.5 20.2575 131.96 20.2575H130.783C127.007 20.2575 125.405 18.1567 125.405 15.8213C125.405 12.7336 128.094 11.3168 131.95 11.2875C136.28 11.3168 139.314 14.1114 139.314 16.9548H139.72V10.5351L130.467 10.5253L133.778 6.02075H129.172V10.5253H128.391C124.862 10.5351 122.351 12.7434 122.351 15.6552C122.351 16.0754 122.41 16.4662 122.509 16.8278L121.402 13.8964L120.117 10.5448H113.562H112.969V11.2972C115.688 11.2972 116.281 11.7467 116.627 12.6261L109.124 29.5011C107.868 32.0905 106.81 32.6474 104.932 32.6474V33.3998H105.525H111.783V32.6474C110.092 32.6474 108.718 32.4129 110.102 29.1689L112.623 23.482C112.584 23.8924 112.623 24.2442 112.732 24.5666C113.829 27.8302 121.995 26.9508 123.468 29.7356L123.725 30.3707C124.051 31.387 123.389 32.6377 121.036 32.6377V33.3901H121.362H121.619H130.744H131.228H139.809V26.003H139.453H139.423V26.0128ZM115.51 17.033L115.391 17.287L117.032 13.6033L117.2 14.0234L122.489 27.2244L122.796 27.9768C120.749 24.6448 111.635 25.7294 115.51 17.033Z" fill="#CBBBA0"/>
<path id="Vector_55" d="M134.52 0.5H115.48C104.043 0.5 94.7302 9.69476 94.7302 21.0099C94.7302 32.3152 104.033 41.51 115.48 41.51H134.52C145.958 41.51 155.26 32.3152 155.26 21.0001C155.26 9.69476 145.958 0.5 134.52 0.5ZM134.52 39.7414H115.48C105.031 39.7414 96.5294 31.3381 96.5294 21.0099C96.5294 10.6817 105.031 2.27837 115.48 2.27837H134.52C144.969 2.27837 153.471 10.6817 153.471 21.0099C153.471 31.3381 144.969 39.7414 134.52 39.7414Z" fill="#CBBBA0"/>
<path id="Vector_56" d="M176.623 114.042H166.777V54.5156L147.381 61.3946V63.1339C155.221 60.9647 156.931 61.5509 156.931 71.4981V97.2649C156.723 109.186 153.55 114.042 146.531 114.042V115.987H194.437H194.457V96.9327H193.419C193.429 104.31 190.631 114.042 176.623 114.042Z" fill="#CBBBA0"/>
<path id="Vector_57" d="M58.0543 105.61L39.6373 57.0366H21.2105V58.9713C28.2194 58.9713 29.7418 60.1439 30.6414 62.3913L11.305 105.912C8.07242 112.586 5.33409 114.023 0.5 114.023L0.519771 114.032H0.5V115.977H18.1459V114.032C13.7764 114.032 10.2374 113.417 13.816 105.062L20.3306 90.4055C19.1444 102.151 44.1353 98.6427 48.3071 106.528L48.9694 108.179C49.8097 110.798 48.1093 114.023 42.0395 114.023V115.967H68.3354V114.023C63.788 114.032 61.0596 112.068 58.0543 105.61ZM27.7449 73.765L27.4285 74.4197L31.6497 64.9123L46.4782 101.984C41.2586 93.3955 17.7604 96.1901 27.7449 73.765Z" fill="#CBBBA0"/>
<path id="Vector_58" d="M248.591 96.9326H248.462V97.1182C248.462 104.505 245.664 114.042 231.656 114.042H219.388V84.0443H222.937C232.675 84.0443 234.592 90.5031 234.592 94.9295H235.63V76.6474H234.592C234.592 79.8231 233.011 82.1096 226.466 82.1096H223.422C213.674 82.1096 209.542 76.6865 209.542 70.6772C209.542 62.7234 216.482 59.0689 226.427 59.0005C237.588 59.0689 245.417 66.2801 245.417 73.6086H246.455V57.0463L222.591 57.0365L231.142 45.4185H219.25V57.0365H217.223C208.109 57.0463 201.653 62.7625 201.653 70.2668C201.653 76.9894 206.952 80.6145 209.552 81.9044V96.9423C209.552 110.427 206.418 114.052 199.162 114.052L199.152 115.996H249.5V96.9423H248.591V96.9326Z" fill="#CBBBA0"/>
<path id="Vector_59" d="M123.735 104.75L122.756 103.177C120.205 99.0628 116.38 95.8872 111.872 94.0795L111.921 94.0697C122.311 90.9136 133.897 87.7086 133.897 73.0713C133.897 60.6227 124.011 57.4861 117.082 57.0855L75.6013 57.0366V58.9713C82.8574 58.9713 85.4771 64.9611 85.9911 76.9993C85.9911 76.9993 86.001 91.2849 86.001 96.0435C86.001 103.352 84.8049 114.003 75.6606 114.032H75.6013V115.977H103.172V114.032H103.123C98.1505 114.023 95.8471 112.166 95.8471 107.74C95.8471 103.675 97.5673 100.968 100.276 98.9749C105.041 96.2976 110.943 97.7046 117.605 108.981L121.293 115.987H130.714L137.822 115.977L137.832 114.042C131.574 114.052 128.322 112.127 123.735 104.75ZM95.8471 97.4408V58.9811H107.334C115.866 58.9811 122.687 63.6811 122.687 74.0972C122.687 93.6202 105.496 88.7639 95.8471 97.4408Z" fill="#CBBBA0"/>
</g>
</g>
<defs>
<clipPath id="clip0_28_5695">
<rect width="249" height="176" fill="white" transform="translate(0.5 0.5)"/>
</clipPath>
</defs>
</svg>
