<?xml version="1.0" encoding="utf-8"?>
<!-- Generator: Adobe Illustrator 28.3.0, SVG Export Plug-In . SVG Version: 6.00 Build 0)  -->
<svg version="1.1" id="Capa_1" xmlns="http://www.w3.org/2000/svg" xmlns:xlink="http://www.w3.org/1999/xlink" x="0px" y="0px"
	 viewBox="0 0 1080 1080" style="enable-background:new 0 0 1080 1080;" xml:space="preserve">
<style type="text/css">
	.st0{fill:#CBBBA0;}
</style>
<g>
	<path class="st0" d="M174.92,732.25h-22.2v-1.42l2.78-0.77c2.26-0.58,2.39-1.36,2.39-15.79c0-18.25-0.32-18.31-2.78-18.89
		l-2.59-0.52v-1.42h23.49c8.35,0,11.65,4.08,11.65,9.96c0,6.15-5.18,12.49-14.56,12.49c-2.46,0-4.79-0.39-6.28-1.1
		c0.07,14.56,0.45,14.95,3.75,15.4l4.34,0.58V732.25z M166.83,713.68c1.62,0.19,3.11,0.32,5.05,0.32c3.88,0,6.21-2.14,6.21-7.44
		c0-7.25-2.27-11.58-7.05-11.58c-1.36,0-2.59,0.07-3.69,0.26c-0.26,1.49-0.52,4.72-0.52,16.05
		C166.83,712.13,166.83,712.91,166.83,713.68z"/>
	<path class="st0" d="M210.33,705.59l-2.46-0.78v-1.16c4.08-0.84,8.8-2.27,11.65-3.56l0.78,0.32c0.07,4.01,0.07,8.15,0.13,12.29
		l0.45,0.07c1.88-7.31,4.66-12.88,10.94-13.14c0.19,2.91,0.32,7.25,0.32,10.42c-1.36-0.13-3.36-0.32-4.85-0.32
		c-4.01,0-6.34,1.68-6.34,6.15c0,13.59,0.26,13.78,2.01,14.11l4.92,0.84v1.42h-20v-1.42l2.14-0.58c2.01-0.52,2.07-1.23,2.07-11.71
		C212.08,706.56,212.08,706.11,210.33,705.59z"/>
	<path class="st0" d="M282.11,711.87l-8.15,1.42l-12.81-0.26v0.58c0,9.64,3.95,12.49,9.97,12.49c5.05,0,8.28-1.94,10.35-7.57
		l0.84,0.78c-2.07,7.38-5.18,13.65-15.08,13.65c-9.12,0-15.47-5.31-15.47-16.5c0-10.29,6.86-16.44,18.18-16.44
		C278.88,700.03,282.24,704.3,282.11,711.87z M261.15,712.52l11-0.97c1.1-0.13,1.49-0.71,1.49-1.75c0-4.59-3.11-7.96-6.93-7.96
		C263.02,701.84,261.28,704.3,261.15,712.52z"/>
	<path class="st0" d="M326.39,701.13c-0.26,2.91-0.45,7.05-0.52,11.06h-1.36l-1.1-3.04c-1.62-4.34-5.43-7.57-9.9-7.57
		c-2.85,0-4.79,1.55-4.79,3.95c0,2.98,2.07,4.92,8.74,6.6c7.5,1.88,10.29,4.92,10.29,9.71c0,5.95-5.24,11.06-15.21,11.06
		c-4.85,0-8.22-1.29-10.29-2.52c0.2-3.04,0.39-6.47,0.52-10.68h1.36l0.97,3.04c1.81,5.18,6.08,6.92,13.78,6.92
		c3.82,0,4.72-1.16,4.72-3.11c0-3.11-2.85-4.59-11.32-6.86c-7.7-2.01-9.77-5.11-9.77-8.87c0-6.15,6.6-11.13,14.24-11.13
		C321.14,699.71,324.38,700.48,326.39,701.13z"/>
	<path class="st0" d="M358.69,732.9c-6.28,0-8.15-3.23-8.15-7.83c0-2.01,0.32-5.63,0.32-8.67c0-4.14,0-7.44-0.26-11.26
		c-1.42,0.07-2.91,0.07-4.4,0.13v-1.04c6.28-2.2,9.12-4.4,12.88-10.42l0.97,0.13c-0.19,2.01-0.39,4.27-0.45,6.66h9.64l-1.68,4.92
		c-2.65-0.13-5.37-0.26-8.03-0.32c-0.06,2.65-0.06,5.43-0.06,8.09c0,3.11-0.07,6.54,0.13,9.71c0.2,2.91,1.36,3.95,3.62,3.95
		c3.11,0,3.88-2.98,4.4-8.87l0.91,0.07C367.95,728.5,365.36,732.9,358.69,732.9z"/>
	<path class="st0" d="M403.1,730.18l2.59,0.65v1.42h-17.73v-1.42l1.94-0.65c2.26-0.65,2.26-1.29,2.26-11.71
		c0-11.91,0-12.36-1.81-12.88l-2.39-0.78v-1.16c4.79-1.1,9-2.2,12.49-3.56l0.71,0.26c-0.07,4.66-0.13,8.8-0.13,13.33
		C401.03,729.34,401.16,729.67,403.1,730.18z M389.96,693.75c0-3.3,2.78-4.85,7.05-4.85c2.98,0,4.85,1.23,4.85,3.62
		c0,3.3-2.78,4.85-7.12,4.85C391.84,697.38,389.96,696.14,389.96,693.75z"/>
	<path class="st0" d="M435.72,743.9c-9.32,0-13.01-1.94-13.01-4.66c0-2.85,4.34-4.85,9.06-6.08v-0.32
		c-4.79-0.26-7.38-1.88-7.38-3.95c0-3.43,5.18-5.31,10.35-5.95v-0.45c-6.6-1.1-10.03-4.92-10.03-10.16
		c0-6.34,6.02-11.71,15.92-11.71h17.21l-0.84,5.95c-4.72-1.94-9.84-4.01-14.95-4.79l-0.13,0.52c5.44,1.68,12.68,4.59,12.68,10.87
		c0,4.92-5.69,9.64-15.85,9.64c-6.02,0.32-8.09,1.62-8.09,2.78c0,0.78,0.78,1.29,2.2,1.29c4.53,0,12.1-0.84,17.47-0.84
		c5.11,0,7.12,1.75,7.12,5.31C457.46,736.14,452.09,743.9,435.72,743.9z M454.1,735.04c0-1.42-0.84-2.39-4.08-2.39
		c-4.4,0-10.42,0.19-15.01,0.19c-2.91,0.13-4.4,1.49-4.4,2.98c0,2.01,2.07,3.3,11.71,3.3C451.64,739.11,454.1,737.69,454.1,735.04z
		 M441.16,721.38c3.69,0,4.72-1.36,4.72-6.86c0-7.9-3.11-12.36-7.83-12.36c-2.91,0-4.53,1.49-4.53,7.38
		C433.52,717.63,436.37,721.38,441.16,721.38z"/>
	<path class="st0" d="M506.53,711.87l-8.15,1.42l-12.81-0.26v0.58c0,9.64,3.95,12.49,9.96,12.49c5.05,0,8.28-1.94,10.35-7.57
		l0.84,0.78c-2.07,7.38-5.18,13.65-15.08,13.65c-9.12,0-15.47-5.31-15.47-16.5c0-10.29,6.86-16.44,18.18-16.44
		C503.29,700.03,506.66,704.3,506.53,711.87z M485.56,712.52l11-0.97c1.1-0.13,1.49-0.71,1.49-1.75c0-4.59-3.11-7.96-6.92-7.96
		C487.44,701.84,485.69,704.3,485.56,712.52z"/>
	<path class="st0" d="M595.59,717.57c0.07,9.58-1.23,15.14-6.79,15.14c-4.27,0-8.93-2.33-13.2-5.69c-2.27,2.85-5.44,5.89-11.26,5.89
		c-6.92,0-11.2-3.49-11.2-9.58c0-5.76,4.72-8.48,10.23-10.81c-1.68-3.11-2.72-6.02-2.72-8.15c0-6.86,6.92-11.58,13.33-11.58
		c6.8,0,9.45,3.23,9.45,6.6c0,5.89-6.93,8.48-12.62,10.87c2.65,4.01,6.21,8.02,9.9,10.87c1.62-2.33,2.52-4.85,2.52-6.92
		c0-2.85-0.58-3.69-2.52-4.01l-2.46-0.26v-1.23h16.69v1.23l-1.1,0.19c-1.68,0.32-3.3,1.36-5.5,3.82c-1.75,2.2-4.08,5.05-6.99,7.7
		c2.91,2.14,5.95,3.49,8.6,3.49c2.39,0,4.01-1.49,4.47-7.57H595.59z M575.08,726.56c-4.59-3.82-8.67-8.8-11.32-13.39
		c-2.39,1.36-3.43,3.23-3.43,6.15c0,5.57,3.11,8.8,8.8,8.8C571.01,728.11,573.33,727.6,575.08,726.56z M570.42,709.6
		c4.21-2.01,5.89-5.11,5.89-8.35c0-3.82-1.55-6.08-5.5-6.08c-3.3,0-4.34,1.17-4.34,3.95C566.48,701.97,568.03,705.79,570.42,709.6z"
		/>
	<path class="st0" d="M656.58,730.7c7.12-1.29,8.74-3.82,11.26-9.51l2.65-7.77l1.42,0.07c-0.78,6.53-1.55,13.39-1.62,18.76h-28.34
		v-1.42l2.98-0.71c2.14-0.58,2.2-1.42,2.2-15.72c0-18.25-0.32-18.44-2.53-18.9l-2.85-0.65v-1.42h20.84v1.42l-4.4,0.71
		c-1.88,0.32-2.07,1.04-2.07,16.57C656.13,725.91,656.26,729.02,656.58,730.7z"/>
	<path class="st0" d="M721.82,711.87l-8.15,1.42l-12.81-0.26v0.58c0,9.64,3.95,12.49,9.96,12.49c5.05,0,8.28-1.94,10.35-7.57
		l0.84,0.78c-2.07,7.38-5.18,13.65-15.08,13.65c-9.12,0-15.47-5.31-15.47-16.5c0-10.29,6.86-16.44,18.18-16.44
		C718.58,700.03,721.95,704.3,721.82,711.87z M700.86,712.52l11-0.97c1.1-0.13,1.49-0.71,1.49-1.75c0-4.59-3.11-7.96-6.92-7.96
		C702.73,701.84,700.98,704.3,700.86,712.52z"/>
	<path class="st0" d="M752.96,743.9c-9.32,0-13.01-1.94-13.01-4.66c0-2.85,4.34-4.85,9.06-6.08v-0.32
		c-4.79-0.26-7.38-1.88-7.38-3.95c0-3.43,5.18-5.31,10.35-5.95v-0.45c-6.6-1.1-10.03-4.92-10.03-10.16
		c0-6.34,6.02-11.71,15.92-11.71h17.21l-0.84,5.95c-4.72-1.94-9.84-4.01-14.95-4.79l-0.13,0.52c5.44,1.68,12.68,4.59,12.68,10.87
		c0,4.92-5.69,9.64-15.85,9.64c-6.02,0.32-8.09,1.62-8.09,2.78c0,0.78,0.78,1.29,2.2,1.29c4.53,0,12.1-0.84,17.47-0.84
		c5.11,0,7.12,1.75,7.12,5.31C774.71,736.14,769.33,743.9,752.96,743.9z M771.34,735.04c0-1.42-0.84-2.39-4.08-2.39
		c-4.4,0-10.42,0.19-15.01,0.19c-2.91,0.13-4.4,1.49-4.4,2.98c0,2.01,2.07,3.3,11.71,3.3C768.88,739.11,771.34,737.69,771.34,735.04
		z M758.4,721.38c3.69,0,4.72-1.36,4.72-6.86c0-7.9-3.11-12.36-7.83-12.36c-2.91,0-4.53,1.49-4.53,7.38
		C750.76,717.63,753.61,721.38,758.4,721.38z"/>
	<path class="st0" d="M812.19,725.33l-0.45-0.07c-1.62,4.01-5.95,7.63-10.09,7.63c-5.57,0-8.41-3.88-8.41-7.7
		c0-3.75,6.41-6.73,18.77-9.45c-0.07-11.33-1.04-13.14-5.31-13.14c-3.04,0-4.27,1.55-4.27,4.53c0,1.68,0.2,4.47,0.39,6.54
		l-8.54,1.16c-0.52-9.71,9.77-14.88,17.02-14.88c6.15,0,9.71,2.72,9.71,8.28c0,2.65-0.19,6.92-0.19,9.71c0,7.77,0.32,8.87,1.55,8.87
		c1.42,0,2.07-1.62,2.52-8.54l0.9,0.07c-0.52,9.96-3.23,14.3-7.25,14.3C814,732.64,812.32,729.34,812.19,725.33z M811.67,723.65
		c0.32-1.49,0.32-2.78,0.32-6.41c-3.04,0.52-5.96,1.04-8.22,1.68c-1.55,0.39-2.33,0.97-2.33,2.72c0,3.04,1.88,4.79,5.63,4.79
		C809.41,726.43,811.35,725.46,811.67,723.65z"/>
	<path class="st0" d="M853.3,712.58c0,9.25,4.08,13.46,10.03,13.46c4.92,0,7.7-1.62,9.51-6.73l0.84,0.71
		c-1.75,6.66-4.79,12.88-14.56,12.88c-8.67,0-14.75-5.24-14.75-15.85c0-10.42,8.41-17.02,18.9-17.02c5.24,0,8.74,1.23,10.09,1.94
		c-0.52,3.49-0.84,7.77-1.04,12.94h-1.29l-1.55-4.27c-2.26-5.95-6.15-8.54-10.55-8.54C855.04,702.16,853.3,705.01,853.3,712.58z"/>
	<path class="st0" d="M891.94,743.13c0.32-3.56,0.58-6.66,0.84-9.9c3.49,1.29,6.6,2.01,9.58,2.01c2.59,0,5.18-0.65,6.86-2.72
		c-2.01-3.88-5.11-9.58-7.96-14.82c-6.54-12.1-7.51-14.11-8.67-15.01l-0.91-0.84v-1.23h17.28v1.23l-2.26,0.26
		c-1.23,0.19-1.81,0.58-1.81,1.49c0,1.23,1.55,4.79,3.75,9.19c1.62,3.24,3.62,6.99,5.18,9.84c2.85-6.8,4.14-11.13,4.14-13.59
		c0-3.88-1.04-6.47-3.75-6.92l-2.2-0.26v-1.23h15.47v1.23l-0.78,0.45c-2.01,1.55-4.85,5.11-16.31,30.22
		c-3.5,7.51-6.92,11.2-12.68,11.2C895.7,743.71,893.5,743.51,891.94,743.13z"/>
</g>
<g>
	<path class="st0" d="M321.22,816.16h17.38v2.38h-14.71v11.17h12.38v2.38h-12.38v12.43h15.34v2.38h-18.02V816.16z"/>
	<path class="st0" d="M348.46,815.57v31.32h-2.28v-30.06L348.46,815.57z"/>
	<path class="st0" d="M355.79,817.32c0-0.49,0.17-0.9,0.51-1.24c0.34-0.34,0.75-0.51,1.24-0.51c0.49,0,0.9,0.17,1.24,0.51
		c0.34,0.34,0.51,0.75,0.51,1.24c0,0.49-0.17,0.9-0.51,1.24c-0.34,0.34-0.75,0.51-1.24,0.51c-0.49,0-0.9-0.17-1.24-0.51
		C355.96,818.22,355.79,817.81,355.79,817.32z M358.66,824.85v22.05h-2.28v-22.05H358.66z"/>
	<path class="st0" d="M370.56,826.79v14.71c0,2.66,1.1,3.98,3.3,3.98c0.87,0,1.86-0.24,2.96-0.73l0.83,1.36
		c-1.33,0.9-2.74,1.36-4.22,1.36c-1.53,0-2.76-0.55-3.71-1.65c-0.96-1.1-1.43-2.54-1.43-4.32v-14.71h-3.4v-1.94h3.45v-5.05
		l2.24-1.17v6.21h6.94v1.94H370.56z"/>
	<path class="st0" d="M400.03,836.7H384.1c0.06,2.69,1,4.86,2.82,6.5c1.68,1.46,3.8,2.19,6.36,2.19c2.17,0,4.06-0.58,5.68-1.75
		l0.92,1.51c-1.94,1.55-4.4,2.33-7.38,2.33c-3.4,0-6.14-1.17-8.21-3.5c-1.85-2.1-2.77-4.77-2.77-8.01c0-3.43,0.98-6.3,2.96-8.6
		c1.81-2.07,4.03-3.11,6.65-3.11c3.14,0,5.5,1.38,7.09,4.13c1.2,2.07,1.79,4.61,1.79,7.62V836.7z M384.15,834.75h13.45
		c-0.07-2.69-0.66-4.77-1.8-6.24c-1.13-1.47-2.7-2.21-4.71-2.21c-1.88,0-3.46,0.79-4.76,2.36
		C385.04,830.23,384.31,832.26,384.15,834.75z"/>
	<path class="st0" d="M425.86,824.27c3.33,0,6,1.28,8.01,3.84c1.65,2.17,2.48,4.77,2.48,7.82c0,3.5-1.07,6.35-3.2,8.55
		c-1.91,2.01-4.34,3.01-7.28,3.01c-3.37,0-6.04-1.28-8.01-3.84c-1.65-2.14-2.47-4.71-2.47-7.72c0-3.53,1.07-6.41,3.2-8.64
		C420.49,825.27,422.92,824.27,425.86,824.27z M425.86,826.31c-2.56,0-4.58,1.05-6.07,3.16c-1.23,1.75-1.85,3.9-1.85,6.46
		c0,2.88,0.81,5.23,2.43,7.04c1.46,1.65,3.29,2.48,5.49,2.48c2.53,0,4.53-1.06,6.02-3.16c1.26-1.75,1.9-3.87,1.9-6.36
		c0-2.94-0.79-5.32-2.38-7.14C429.94,827.13,428.1,826.31,425.86,826.31z"/>
	<path class="st0" d="M444.12,846.89h-1.65v-30.06l2.28-1.26v11.51c1.62-1.88,3.79-2.82,6.5-2.82c3.37,0,5.99,1.21,7.87,3.64
		c1.55,2.01,2.33,4.51,2.33,7.52c0,4.05-1.12,7.16-3.35,9.33c-1.85,1.81-4.15,2.72-6.9,2.72c-2.72,0-4.94-0.97-6.65-2.92
		L444.12,846.89z M444.75,829.8v12.29c1.26,2.2,3.4,3.3,6.41,3.3c2.33,0,4.22-0.92,5.68-2.77c1.36-1.72,2.04-3.95,2.04-6.7
		c0-3.17-0.81-5.62-2.43-7.33c-1.42-1.49-3.24-2.24-5.44-2.24c-1.33,0-2.57,0.32-3.74,0.97C446.11,827.97,445.27,828.8,444.75,829.8
		z"/>
	<path class="st0" d="M470.05,824.85v25.35c0,1.78-0.48,3.22-1.43,4.32c-0.95,1.1-2.19,1.65-3.71,1.65c-1.49,0-2.9-0.45-4.22-1.36
		l0.83-1.36c1.1,0.49,2.09,0.73,2.96,0.73c2.2,0,3.3-1.33,3.3-3.98v-25.35H470.05z M467.14,817.32c0-0.49,0.17-0.9,0.51-1.24
		c0.34-0.34,0.75-0.51,1.24-0.51c0.49,0,0.9,0.17,1.24,0.51c0.34,0.34,0.51,0.75,0.51,1.24c0,0.49-0.17,0.9-0.51,1.24
		s-0.75,0.51-1.24,0.51c-0.49,0-0.9-0.17-1.24-0.51C467.31,818.22,467.14,817.81,467.14,817.32z"/>
	<path class="st0" d="M495.25,836.7h-15.93c0.06,2.69,1,4.86,2.82,6.5c1.68,1.46,3.8,2.19,6.36,2.19c2.17,0,4.06-0.58,5.68-1.75
		l0.92,1.51c-1.94,1.55-4.4,2.33-7.38,2.33c-3.4,0-6.14-1.17-8.21-3.5c-1.85-2.1-2.77-4.77-2.77-8.01c0-3.43,0.98-6.3,2.96-8.6
		c1.81-2.07,4.03-3.11,6.65-3.11c3.14,0,5.5,1.38,7.09,4.13c1.2,2.07,1.79,4.61,1.79,7.62V836.7z M479.37,834.75h13.45
		c-0.07-2.69-0.66-4.77-1.8-6.24c-1.13-1.47-2.7-2.21-4.71-2.21c-1.88,0-3.46,0.79-4.76,2.36
		C480.26,830.23,479.54,832.26,479.37,834.75z"/>
	<path class="st0" d="M517.93,845.29c-1.81,1.45-4.16,2.19-7.04,2.19c-3.47,0-6.23-1.2-8.31-3.6c-1.78-2.1-2.67-4.74-2.67-7.92
		c0-3.56,1.15-6.47,3.45-8.74c2.01-1.98,4.42-2.96,7.24-2.96s5.1,0.7,6.85,2.09l-0.92,1.36c-1.62-0.9-3.35-1.36-5.2-1.36
		c-2.91,0-5.18,1.04-6.8,3.11c-1.36,1.72-2.04,3.93-2.04,6.65c0,2.92,0.87,5.21,2.62,6.9c1.62,1.59,3.81,2.38,6.56,2.38
		c1.88,0,3.68-0.52,5.39-1.55L517.93,845.29z"/>
	<path class="st0" d="M527.69,826.79v14.71c0,2.66,1.1,3.98,3.3,3.98c0.87,0,1.86-0.24,2.96-0.73l0.83,1.36
		c-1.33,0.9-2.74,1.36-4.22,1.36c-1.53,0-2.76-0.55-3.71-1.65c-0.96-1.1-1.43-2.54-1.43-4.32v-14.71h-3.4v-1.94h3.45v-5.05
		l2.24-1.17v6.21h6.94v1.94H527.69z"/>
	<path class="st0" d="M551.68,827.52c-1.55-0.77-3.3-1.17-5.24-1.17c-1.46,0-2.61,0.31-3.45,0.92c-0.84,0.62-1.26,1.47-1.26,2.57
		c0,1.17,0.36,2.05,1.09,2.67c0.73,0.62,2.16,1.26,4.3,1.94c2.56,0.81,4.36,1.72,5.41,2.72c1.05,1,1.58,2.35,1.58,4.03
		c0,1.84-0.71,3.35-2.13,4.51c-1.43,1.17-3.26,1.75-5.49,1.75c-2.79,0-5.23-0.73-7.33-2.19l0.63-1.31c1.91,0.94,3.94,1.41,6.07,1.41
		c3.82,0,5.73-1.42,5.73-4.27c0-1.07-0.4-1.93-1.21-2.6c-0.81-0.66-2.28-1.32-4.42-1.97c-4.53-1.39-6.8-3.59-6.8-6.6
		c0-1.65,0.64-3.01,1.94-4.08c1.3-1.07,2.96-1.6,5-1.6c2.3,0,4.4,0.63,6.31,1.89L551.68,827.52z"/>
	<path class="st0" d="M559.93,850.97c1.2-1.07,1.8-2.2,1.8-3.4c0-0.16-0.03-0.4-0.09-0.73c-0.39,0.32-0.76,0.49-1.12,0.49
		c-0.52,0-0.96-0.19-1.34-0.56c-0.37-0.38-0.56-0.83-0.56-1.39c0-1.23,0.64-1.85,1.94-1.85c0.68,0,1.24,0.31,1.68,0.92
		c0.44,0.62,0.66,1.38,0.66,2.28c0,2.04-0.9,3.66-2.72,4.86L559.93,850.97z"/>
	<path class="st0" d="M599.75,816.16l7.72,27.14l8.6-27.14h3.06l-10.39,30.74h-2.67l-7.82-26.95l-7.82,26.95h-2.57l-10.49-30.74
		h3.01l8.69,27.14l7.62-27.14H599.75z"/>
	<path class="st0" d="M638.99,836.7h-15.93c0.06,2.69,1,4.86,2.82,6.5c1.68,1.46,3.8,2.19,6.36,2.19c2.17,0,4.06-0.58,5.68-1.75
		l0.92,1.51c-1.94,1.55-4.4,2.33-7.38,2.33c-3.4,0-6.14-1.17-8.21-3.5c-1.85-2.1-2.77-4.77-2.77-8.01c0-3.43,0.98-6.3,2.96-8.6
		c1.81-2.07,4.03-3.11,6.65-3.11c3.14,0,5.5,1.38,7.09,4.13c1.2,2.07,1.79,4.61,1.79,7.62V836.7z M623.11,834.75h13.45
		c-0.07-2.69-0.66-4.77-1.8-6.24c-1.13-1.47-2.7-2.21-4.71-2.21c-1.88,0-3.46,0.79-4.76,2.36
		C624,830.23,623.27,832.26,623.11,834.75z"/>
	<path class="st0" d="M660.74,846.89h-1.65l-0.43-2.47c-2.17,2.04-4.75,3.06-7.72,3.06c-2.17,0-3.93-0.62-5.27-1.85
		c-1.35-1.23-2.02-2.85-2.02-4.86c0-5.05,3.56-7.58,10.68-7.58h4.13v-0.39c0-4.31-2.07-6.46-6.21-6.46c-2.11,0-4.18,0.73-6.22,2.19
		l-0.92-1.36c1.94-1.94,4.5-2.91,7.67-2.91c2.56,0,4.52,0.79,5.9,2.36c1.38,1.57,2.06,3.81,2.06,6.73V846.89z M658.46,835.15h-3.74
		c-3.04,0-5.22,0.4-6.53,1.21c-1.31,0.81-1.97,2.17-1.97,4.08c0,1.55,0.48,2.77,1.43,3.64c0.96,0.87,2.28,1.31,3.96,1.31
		c1.36,0,2.7-0.33,4.03-1c1.33-0.66,2.26-1.46,2.81-2.4V835.15z"/>
	<path class="st0" d="M670.41,827.32c2.26-2.04,4.42-3.06,6.46-3.06c2.2,0,3.85,0.65,4.95,1.94l-1.89,1.5
		c-1.07-0.87-2.26-1.31-3.59-1.31c-2.01,0-3.92,1.1-5.73,3.3v17.19h-2.28v-22.05h1.89L670.41,827.32z"/>
	<path class="st0" d="M701.24,846.89h-1.65l-0.43-2.47c-2.17,2.04-4.75,3.06-7.72,3.06c-2.17,0-3.93-0.62-5.27-1.85
		c-1.35-1.23-2.02-2.85-2.02-4.86c0-5.05,3.56-7.58,10.68-7.58h4.13v-0.39c0-4.31-2.07-6.46-6.21-6.46c-2.11,0-4.18,0.73-6.22,2.19
		l-0.92-1.36c1.94-1.94,4.5-2.91,7.67-2.91c2.56,0,4.52,0.79,5.9,2.36c1.38,1.57,2.06,3.81,2.06,6.73V846.89z M698.95,835.15h-3.74
		c-3.04,0-5.22,0.4-6.53,1.21c-1.31,0.81-1.97,2.17-1.97,4.08c0,1.55,0.48,2.77,1.43,3.64c0.96,0.87,2.28,1.31,3.96,1.31
		c1.36,0,2.7-0.33,4.03-1c1.33-0.66,2.26-1.46,2.81-2.4V835.15z"/>
	<path class="st0" d="M710.46,846.89h-1.65v-30.06l2.28-1.26v11.51c1.62-1.88,3.79-2.82,6.51-2.82c3.37,0,5.99,1.21,7.86,3.64
		c1.56,2.01,2.33,4.51,2.33,7.52c0,4.05-1.11,7.16-3.35,9.33c-1.84,1.81-4.14,2.72-6.89,2.72c-2.72,0-4.94-0.97-6.65-2.92
		L710.46,846.89z M711.09,829.8v12.29c1.26,2.2,3.4,3.3,6.41,3.3c2.33,0,4.22-0.92,5.68-2.77c1.36-1.72,2.04-3.95,2.04-6.7
		c0-3.17-0.81-5.62-2.43-7.33c-1.43-1.49-3.24-2.24-5.44-2.24c-1.33,0-2.57,0.32-3.74,0.97C712.45,827.97,711.61,828.8,711.09,829.8
		z"/>
	<path class="st0" d="M736.2,815.57v31.32h-2.28v-30.06L736.2,815.57z"/>
	<path class="st0" d="M760.82,836.7h-15.93c0.06,2.69,1,4.86,2.82,6.5c1.68,1.46,3.8,2.19,6.36,2.19c2.17,0,4.06-0.58,5.68-1.75
		l0.92,1.51c-1.94,1.55-4.4,2.33-7.38,2.33c-3.4,0-6.14-1.17-8.21-3.5c-1.85-2.1-2.77-4.77-2.77-8.01c0-3.43,0.98-6.3,2.96-8.6
		c1.81-2.07,4.03-3.11,6.65-3.11c3.14,0,5.5,1.38,7.09,4.13c1.2,2.07,1.79,4.61,1.79,7.62V836.7z M744.94,834.75h13.45
		c-0.07-2.69-0.66-4.77-1.8-6.24c-1.13-1.47-2.7-2.21-4.71-2.21c-1.88,0-3.46,0.79-4.76,2.36
		C745.83,830.23,745.1,832.26,744.94,834.75z"/>
	<path class="st0" d="M426.28,864.72h17.38v2.38h-14.71v11.17h12.38v2.38h-12.38v12.43h15.34v2.38h-18.02V864.72z"/>
	<path class="st0" d="M466.14,873.41l-7.24,10.44l7.62,11.61h-2.57l-6.5-9.86l-6.65,9.86h-2.62l7.77-11.46l-6.7-10.59h2.57
		l5.64,8.79l6.12-8.79H466.14z"/>
	<path class="st0" d="M472.94,873.41l0.39,2.53c1.75-2.07,4.29-3.11,7.62-3.11c3.11,0,5.57,1.21,7.38,3.64
		c1.52,2.04,2.28,4.55,2.28,7.52c0,3.95-1.1,7.04-3.3,9.27c-1.81,1.85-4.01,2.77-6.6,2.77c-3.11,0-5.57-0.97-7.38-2.92v11.32h-2.28
		v-31.03H472.94z M473.33,878.56v12.04c0.61,0.97,1.54,1.77,2.77,2.41c1.23,0.63,2.49,0.94,3.79,0.94c2.49,0,4.5-0.89,6.02-2.67
		c1.43-1.68,2.14-3.95,2.14-6.8c0-3.24-0.81-5.7-2.43-7.38c-1.36-1.45-3.16-2.19-5.39-2.19c-1.36,0-2.68,0.34-3.96,1.02
		C474.99,876.61,474.01,877.49,473.33,878.56z"/>
	<path class="st0" d="M513.78,885.26h-15.93c0.06,2.69,1,4.86,2.82,6.5c1.68,1.46,3.8,2.19,6.36,2.19c2.17,0,4.06-0.58,5.68-1.75
		l0.92,1.51c-1.94,1.55-4.4,2.33-7.38,2.33c-3.4,0-6.14-1.17-8.21-3.5c-1.85-2.1-2.77-4.77-2.77-8.01c0-3.43,0.98-6.3,2.96-8.6
		c1.81-2.07,4.03-3.11,6.65-3.11c3.14,0,5.5,1.38,7.09,4.13c1.2,2.07,1.79,4.61,1.79,7.62V885.26z M497.9,883.31h13.45
		c-0.07-2.69-0.66-4.77-1.8-6.24c-1.13-1.47-2.7-2.21-4.71-2.21c-1.88,0-3.46,0.79-4.76,2.36
		C498.79,878.79,498.06,880.82,497.9,883.31z"/>
	<path class="st0" d="M521.99,875.88c2.26-2.04,4.42-3.06,6.46-3.06c2.2,0,3.85,0.65,4.95,1.94l-1.89,1.5
		c-1.07-0.87-2.26-1.31-3.59-1.31c-2.01,0-3.92,1.1-5.73,3.3v17.19h-2.28v-22.05h1.89L521.99,875.88z"/>
	<path class="st0" d="M537.43,865.88c0-0.49,0.17-0.9,0.51-1.24c0.34-0.34,0.75-0.51,1.24-0.51c0.49,0,0.9,0.17,1.24,0.51
		c0.34,0.34,0.51,0.75,0.51,1.24s-0.17,0.9-0.51,1.24c-0.34,0.34-0.75,0.51-1.24,0.51c-0.49,0-0.9-0.17-1.24-0.51
		S537.43,866.37,537.43,865.88z M540.29,873.41v22.05h-2.28v-22.05H540.29z"/>
	<path class="st0" d="M565.3,885.26h-15.93c0.07,2.69,1,4.86,2.82,6.5c1.68,1.46,3.81,2.19,6.36,2.19c2.17,0,4.06-0.58,5.68-1.75
		l0.92,1.51c-1.94,1.55-4.4,2.33-7.38,2.33c-3.4,0-6.13-1.17-8.21-3.5c-1.84-2.1-2.77-4.77-2.77-8.01c0-3.43,0.99-6.3,2.96-8.6
		c1.81-2.07,4.03-3.11,6.65-3.11c3.14,0,5.5,1.38,7.09,4.13c1.2,2.07,1.8,4.61,1.8,7.62V885.26z M549.42,883.31h13.45
		c-0.06-2.69-0.66-4.77-1.79-6.24c-1.13-1.47-2.7-2.21-4.71-2.21c-1.88,0-3.47,0.79-4.76,2.36
		C550.31,878.79,549.58,880.82,549.42,883.31z"/>
	<path class="st0" d="M573.5,875.88c2.23-2.04,4.76-3.06,7.58-3.06c2.65,0,4.71,0.86,6.16,2.57c1.42,1.62,2.14,3.9,2.14,6.85v13.21
		h-2.28v-12.97c0-5.05-2.2-7.58-6.6-7.58c-2.85,0-5.11,1.12-6.8,3.35v17.19h-2.28v-22.05h1.89L573.5,875.88z"/>
	<path class="st0" d="M613.27,893.85c-1.81,1.45-4.16,2.19-7.04,2.19c-3.47,0-6.23-1.2-8.31-3.6c-1.78-2.1-2.67-4.74-2.67-7.92
		c0-3.56,1.15-6.47,3.45-8.74c2.01-1.98,4.42-2.96,7.24-2.96c2.82,0,5.1,0.7,6.85,2.09l-0.92,1.36c-1.62-0.9-3.35-1.36-5.2-1.36
		c-2.91,0-5.18,1.04-6.8,3.11c-1.36,1.72-2.04,3.93-2.04,6.65c0,2.92,0.87,5.21,2.62,6.9c1.62,1.59,3.81,2.38,6.56,2.38
		c1.88,0,3.68-0.52,5.39-1.55L613.27,893.85z"/>
	<path class="st0" d="M636.14,885.26h-15.93c0.06,2.69,1,4.86,2.82,6.5c1.68,1.46,3.8,2.19,6.36,2.19c2.17,0,4.06-0.58,5.68-1.75
		l0.92,1.51c-1.94,1.55-4.4,2.33-7.38,2.33c-3.4,0-6.14-1.17-8.21-3.5c-1.85-2.1-2.77-4.77-2.77-8.01c0-3.43,0.98-6.3,2.96-8.6
		c1.81-2.07,4.03-3.11,6.65-3.11c3.14,0,5.5,1.38,7.09,4.13c1.2,2.07,1.79,4.61,1.79,7.62V885.26z M620.27,883.31h13.45
		c-0.07-2.69-0.66-4.77-1.8-6.24c-1.13-1.47-2.7-2.21-4.71-2.21c-1.88,0-3.46,0.79-4.76,2.36
		C621.15,878.79,620.43,880.82,620.27,883.31z"/>
	<path class="st0" d="M653.33,876.08c-1.55-0.77-3.3-1.17-5.24-1.17c-1.46,0-2.61,0.31-3.45,0.92s-1.26,1.47-1.26,2.57
		c0,1.17,0.36,2.05,1.09,2.67c0.73,0.62,2.16,1.26,4.3,1.94c2.56,0.81,4.36,1.72,5.41,2.72c1.05,1,1.58,2.35,1.58,4.03
		c0,1.84-0.71,3.35-2.13,4.51c-1.43,1.17-3.26,1.75-5.49,1.75c-2.79,0-5.23-0.73-7.33-2.19l0.63-1.31c1.91,0.94,3.94,1.41,6.07,1.41
		c3.82,0,5.73-1.42,5.73-4.27c0-1.07-0.4-1.93-1.21-2.6s-2.28-1.32-4.42-1.97c-4.53-1.39-6.8-3.59-6.8-6.6
		c0-1.65,0.64-3.01,1.94-4.08c1.3-1.07,2.96-1.6,5-1.6c2.3,0,4.4,0.63,6.31,1.89L653.33,876.08z"/>
</g>
<g>
	<g>
		<path class="st0" d="M246.89,243.15h17.38v2.38h-14.71v11.17h12.38v2.38h-12.38v12.43h15.34v2.38h-18.02V243.15z"/>
		<path class="st0" d="M286.56,246.5c-1.85-1.04-3.95-1.55-6.31-1.55c-2.17,0-3.85,0.45-5.03,1.36c-1.18,0.91-1.77,2.19-1.77,3.84
			c0,2.3,2.02,4.21,6.07,5.73c3.63,1.36,6.13,2.78,7.5,4.25c1.38,1.47,2.06,3.47,2.06,6c0,2.65-1.04,4.78-3.11,6.36
			c-1.75,1.33-3.85,1.99-6.31,1.99c-3.17,0-6.23-0.97-9.18-2.91l1.11-1.6c2.62,1.42,5.13,2.14,7.53,2.14c2.17,0,3.91-0.54,5.22-1.63
			c1.31-1.08,1.97-2.53,1.97-4.34c0-1.88-0.51-3.38-1.51-4.52c-1.07-1.13-2.82-2.12-5.24-2.96c-3.17-1.07-5.47-2.27-6.9-3.62
			c-1.43-1.34-2.14-2.97-2.14-4.88c0-2.33,0.94-4.21,2.82-5.63c1.68-1.3,3.86-1.94,6.56-1.94c2.91,0,5.53,0.78,7.86,2.33
			L286.56,246.5z"/>
		<path class="st0" d="M301.51,245.53H292v-2.38h22.48v2.38h-10.29v28.36h-2.67V245.53z"/>
		<path class="st0" d="M320.06,243.15c3.01-0.39,5.34-0.58,6.99-0.58c5.18,0,9.14,1.59,11.89,4.76c2.36,2.72,3.54,6.34,3.54,10.88
			c0,5.47-1.47,9.63-4.42,12.48c-2.62,2.53-6.22,3.79-10.78,3.79c-1.78,0-4.19-0.19-7.24-0.58V243.15z M322.73,272
			c1.55,0.19,3.06,0.29,4.52,0.29c4.11,0,7.24-1.31,9.37-3.93c1.98-2.39,2.96-5.71,2.96-9.95c0-4.63-1.34-8.17-4.03-10.63
			c-2.2-2.01-5-3.01-8.4-3.01c-1.98,0-3.45,0.1-4.42,0.29V272z"/>
		<path class="st0" d="M350.85,274.28c-1.13-0.07-1.7-0.65-1.7-1.75c0-1.13,0.57-1.7,1.7-1.7s1.7,0.57,1.7,1.7
			C352.55,273.7,351.98,274.28,350.85,274.28z"/>
	</g>
	<g>
		<path class="st0" d="M739.83,270.38c0-0.9,0.08-1.92,0.24-3.03c0.16-1.12,0.53-2.25,1.09-3.4c0.57-1.15,1.39-2.27,2.47-3.35
			c1.09-1.08,2.53-2.06,4.35-2.94c0.9-0.45,1.88-0.9,2.91-1.36c1.04-0.45,1.99-0.98,2.87-1.58c0.88-0.6,1.6-1.29,2.19-2.06
			c0.58-0.78,0.88-1.72,0.88-2.82c0-0.65-0.15-1.29-0.44-1.94c-0.29-0.65-0.72-1.23-1.29-1.75c-0.57-0.52-1.28-0.94-2.16-1.26
			c-0.87-0.32-1.89-0.49-3.06-0.49c-1.13,0-2.14,0.16-3.03,0.49c-0.89,0.32-1.67,0.71-2.33,1.16c-0.66,0.45-1.22,0.91-1.65,1.36
			c-0.44,0.45-0.75,0.81-0.95,1.07l-1.65-1.7c0.13-0.13,0.45-0.44,0.95-0.95s1.17-1.02,2.02-1.56c0.84-0.53,1.85-1.02,3.03-1.46
			c1.18-0.44,2.5-0.66,3.96-0.66c1.46,0,2.76,0.2,3.91,0.61c1.15,0.41,2.12,0.95,2.91,1.65c0.79,0.7,1.39,1.51,1.79,2.43
			c0.41,0.92,0.61,1.89,0.61,2.89c0,1.33-0.32,2.48-0.97,3.45c-0.65,0.97-1.44,1.82-2.38,2.55c-0.94,0.73-1.92,1.34-2.94,1.82
			c-1.02,0.49-1.9,0.89-2.65,1.21c-2.53,1.07-4.46,2.34-5.8,3.81c-1.34,1.47-2.05,3.33-2.11,5.56h17.38v2.23H739.83z"/>
		<path class="st0" d="M789.22,256.15c0,2.14-0.3,4.1-0.9,5.9c-0.6,1.8-1.44,3.35-2.53,4.66c-1.08,1.31-2.36,2.33-3.83,3.06
			c-1.47,0.73-3.09,1.09-4.83,1.09c-1.75,0-3.36-0.37-4.83-1.09c-1.47-0.73-2.74-1.75-3.81-3.06c-1.07-1.31-1.9-2.87-2.5-4.66
			c-0.6-1.8-0.9-3.76-0.9-5.9c0-2.14,0.3-4.1,0.9-5.9c0.6-1.8,1.43-3.35,2.5-4.66c1.07-1.31,2.34-2.34,3.81-3.08
			c1.47-0.74,3.09-1.12,4.83-1.12c1.75,0,3.36,0.37,4.83,1.12c1.47,0.74,2.75,1.77,3.83,3.08c1.09,1.31,1.93,2.87,2.53,4.66
			C788.92,252.05,789.22,254.01,789.22,256.15z M786.74,256.15c0-1.85-0.23-3.54-0.7-5.07s-1.13-2.85-1.97-3.93
			c-0.84-1.08-1.85-1.93-3.03-2.55c-1.18-0.61-2.49-0.92-3.91-0.92s-2.73,0.31-3.91,0.92c-1.18,0.62-2.19,1.47-3.03,2.55
			c-0.84,1.09-1.5,2.4-1.97,3.93c-0.47,1.54-0.7,3.23-0.7,5.07c0,1.85,0.23,3.53,0.7,5.05c0.47,1.52,1.13,2.83,1.97,3.93
			s1.85,1.95,3.03,2.55c1.18,0.6,2.49,0.9,3.91,0.9s2.73-0.3,3.91-0.9c1.18-0.6,2.19-1.45,3.03-2.55s1.5-2.41,1.97-3.93
			S786.74,257.99,786.74,256.15z"/>
		<path class="st0" d="M810.78,268.14v2.23h-15.49v-2.23h6.9v-22.44c-0.29,0.39-0.74,0.81-1.36,1.26c-0.62,0.45-1.31,0.88-2.09,1.29
			c-0.78,0.41-1.57,0.74-2.38,1.02c-0.81,0.27-1.54,0.41-2.19,0.41v-2.43c0.81,0,1.67-0.22,2.57-0.66c0.9-0.44,1.75-0.93,2.55-1.48
			c0.79-0.55,1.46-1.07,1.99-1.58c0.53-0.5,0.83-0.8,0.9-0.9h2.43v25.49H810.78z"/>
		<path class="st0" d="M827.82,258.92c2.2,0.36,3.97,1.34,5.3,2.96c1.32,1.62,1.99,3.61,1.99,5.97c0,1.46-0.26,2.78-0.8,3.96
			c-0.53,1.18-1.28,2.19-2.24,3.03c-0.95,0.84-2.09,1.5-3.42,1.97c-1.33,0.47-2.8,0.71-4.42,0.71c-2.43,0-4.56-0.52-6.41-1.56
			c-1.85-1.04-3.19-2.46-4.03-4.27l1.8-1.46c0.64,1.56,1.72,2.78,3.2,3.69c1.49,0.91,3.32,1.36,5.49,1.36
			c2.56,0,4.58-0.66,6.07-1.99c1.49-1.33,2.24-3.17,2.24-5.54s-0.77-4.24-2.31-5.63c-1.54-1.39-3.71-2.09-6.53-2.09h-1.17v-2.14
			h1.26c2.62,0,4.63-0.59,6.02-1.77c1.39-1.18,2.09-2.76,2.09-4.73c0-1.07-0.19-2.02-0.58-2.84c-0.39-0.83-0.92-1.53-1.6-2.11
			c-0.68-0.58-1.49-1.03-2.43-1.34c-0.94-0.31-1.96-0.46-3.06-0.46c-1.94,0-3.64,0.44-5.1,1.34c-1.46,0.89-2.53,2.1-3.2,3.62
			l-1.65-1.36c0.39-0.87,0.92-1.67,1.58-2.38c0.66-0.71,1.44-1.33,2.33-1.85c0.89-0.52,1.86-0.91,2.92-1.19
			c1.05-0.27,2.16-0.41,3.32-0.41c1.46,0,2.79,0.21,4.01,0.63c1.21,0.42,2.26,1.02,3.16,1.8c0.89,0.78,1.58,1.7,2.09,2.77
			c0.5,1.07,0.75,2.25,0.75,3.54c0,1-0.15,1.94-0.46,2.82c-0.31,0.88-0.75,1.65-1.34,2.33c-0.58,0.68-1.29,1.25-2.11,1.72
			C829.74,258.49,828.82,258.79,827.82,258.92z"/>
	</g>
</g>
<g>
	<g>
		<g>
			<path class="st0" d="M599.06,281.2v0.3c0,11.86-4.44,27.18-26.67,27.18h-6.81v-0.01c-7.22,0-11.56-3.15-16.34-13.52l-14.96-39.93
				l-3.1-8.27c2.75,5.44,7.66,8.67,10.51,10.1v7.59l10.9,30.5c1.7,3.7,3.24,6.46,4.73,8.51v-43.15h5.64
				c15.46,0,18.5,10.38,18.5,17.49h1.65v-29.38h-1.65c0,5.1-2.51,8.77-12.9,8.77h-4.83c-15.47,0-22.03-8.71-22.03-18.36
				c0-12.77,11.01-18.64,26.8-18.75c17.72,0.12,30.14,11.7,30.14,23.46l1.64,0v-26.6l-37.88-0.02l13.58-18.65h-18.88v18.65h-3.21
				l0,0c-14.46,0.02-24.72,9.19-24.72,21.24c0,1.76,0.24,3.38,0.63,4.88l-4.55-12.13l-5.23-13.97h-26.83h-2.41v3.11
				c11.12,0,13.54,1.88,14.97,5.49v0l-30.69,69.89c-5.14,10.72-9.48,13.03-17.16,13.03l0.03,0.02h-0.03v3.12h2.41h25.6v-3.12
				c-6.93,0-12.56-0.99-6.87-14.4l10.34-23.54c-0.17,1.68,0.01,3.16,0.45,4.48c4.49,13.52,37.93,9.87,43.96,21.42l1.05,2.65
				c1.34,4.2-1.37,9.39-10.99,9.39v3.12h1.35h1.06h37.35h1.98h35.14v-30.6h-1.45H599.06z M501.14,244.02l-0.5,1.05l6.7-15.26
				l0.68,1.73l21.63,54.68l1.23,3.12C522.59,275.54,485.29,280.02,501.14,244.02z"/>
		</g>
	</g>
	<g>
		<g>
			<path class="st0" d="M578.97,175.56h-77.94c-46.82,0-84.92,38.09-84.92,84.92c0,46.82,38.09,84.92,84.92,84.92h77.94
				c46.82,0,84.92-38.09,84.92-84.92C663.89,213.65,625.79,175.56,578.97,175.56z M578.97,338.05h-77.94
				c-42.78,0-77.57-34.8-77.57-77.58c0-42.78,34.8-77.57,77.57-77.57h77.94c42.78,0,77.58,34.8,77.58,77.58
				C656.54,303.25,621.74,338.05,578.97,338.05z"/>
		</g>
	</g>
</g>
<g>
	<g>
		<path class="st0" d="M751.32,645.76h-40.29l0-246.51l-79.4,28.47v7.2c32.1-8.98,39.1-6.54,39.1,34.65v106.69
			c-0.83,49.39-13.85,69.47-42.57,69.47l0.02,0.01h-0.02v8.05h196.08h0.1v-78.9h-4.26C820.1,605.47,808.66,645.76,751.32,645.76z"/>
	</g>
	<g>
		<path class="st0" d="M265.95,610.84l-75.38-201.16h-75.41v8.02c28.68,0,34.93,4.84,38.61,14.15l0,0L74.61,612.07
			c-13.24,27.65-24.45,33.61-44.24,33.61l0.08,0.04h-0.08v8.04h72.24v-8.04c-17.87,0-32.39-2.55-17.72-37.13l26.66-60.7
			c-4.85,48.65,97.44,34.1,114.52,66.78l2.7,6.83c3.45,10.84-3.53,24.22-28.35,24.22v8.05h107.65v-8.05
			C289.44,645.71,278.26,637.6,265.95,610.84z M141.9,478.98l-1.28,2.72l17.29-39.36l60.72,153.51
			C197.22,560.26,101.04,571.83,141.9,478.98z"/>
	</g>
	<g>
		<path class="st0" d="M1045.9,574.91h-0.53v0.79c0,30.59-11.45,70.09-68.78,70.09h-50.21V521.55h14.53
			c39.85,0,47.7,26.76,47.7,45.1h4.26V490.9h-4.26c0,13.16-6.48,22.63-33.26,22.63h-12.46c-39.9,0-56.81-22.45-56.81-47.35
			c0-32.94,28.4-48.06,69.11-48.36c45.68,0.3,77.72,30.16,77.72,60.49l4.24,0v-68.59l-97.68-0.06l35.01-48.1h-48.67v48.1h-8.29l0,0
			c-37.3,0.05-63.76,23.71-63.76,54.77c0,27.84,21.7,42.86,32.32,48.2v62.26c0,55.85-12.83,70.85-42.53,70.85l-0.03,8.05h206.11
			v-78.9H1045.9z"/>
	</g>
	<g>
		<path class="st0" d="M534.81,607.31L534.81,607.31l-4-6.51c-10.45-17.02-26.1-30.17-44.57-37.65l0.2-0.06
			c42.52-13.07,89.97-26.34,89.97-86.95c0-51.56-40.47-64.53-68.82-66.2l-169.78-0.21v8.02c29.7,0,40.45,24.81,42.53,74.64
			c0,0,0.03,59.16,0.03,78.88c0,30.27-4.9,74.39-42.34,74.49h-0.23v8.05h112.86v-8.05h-0.2c-20.35-0.05-29.8-7.73-29.8-26.04
			c0-16.85,7.05-28.05,18.12-36.32c19.5-11.11,43.65-5.24,70.95,41.42l0,0l15.09,29.03h38.55l29.11-0.04l0.02-8
			C566.89,645.81,553.6,637.84,534.81,607.31z M420.67,577.01V417.75h47.02c34.93,0,62.84,19.47,62.84,62.6
			C530.53,561.2,460.14,541.08,420.67,577.01z"/>
	</g>
</g>
</svg>
