<?xml version="1.0" encoding="UTF-8"?>
<svg id="Layer_1" data-name="Layer 1" xmlns="http://www.w3.org/2000/svg" viewBox="0 0 500 500">
  <defs>
    <!-- <style>
      .cls-1 {
        fill: #000;
        stroke-width: 0px;
      }
    </style> -->
  </defs>
  <path d="M364.11,121.06c-26.93-24.04-58.51-38.02-94.44-41.28-46.3-4.2-87.72,8.55-123.13,38.71-37.48,31.92-57.17,72.99-58.81,122.23-1.22,36.45,9.12,69.73,29.96,99.68,1.15,1.65,1.3,3.02.66,4.87-3.28,9.51-6.44,19.06-9.65,28.6-3.34,9.94-6.69,19.89-10.23,30.43,1.44-.4,2.28-.59,3.1-.85,19.5-6.23,39.01-12.45,58.49-18.74,1.67-.54,2.89-.38,4.4.58,30.58,19.34,63.93,28.1,100.08,25.74,36.82-2.39,69.66-15.32,97.23-39.77,46.61-41.35,65.38-93.39,55.53-154.95-6.07-37.94-24.53-69.65-53.19-95.23ZM357.31,301.07c-.9,9.94-2.15,19.9-9.73,27.29-8.72,8.51-19.16,13.6-31.39,15.75-9.87,1.74-18.95.09-28.02-3.1-16.32-5.74-32.55-11.77-47.39-20.87-20.76-12.73-37.66-29.66-52.26-48.94-9.65-12.74-18.69-25.93-25.7-40.36-5.18-10.66-8.56-21.84-8.57-33.83-.02-18.09,7.21-32.84,20.64-44.68,3.95-3.49,8.64-5.02,13.94-4.58,3.6.3,7.21.57,10.83.74,3.36.16,5.46,2.17,6.63,4.94,2.57,6.09,4.89,12.29,7.24,18.47,3.04,8,5.92,16.06,9.03,24.03,1.32,3.38,1.17,6.4-.52,9.63-3.21,6.14-8.06,10.91-12.79,15.76-4.61,4.72-4.97,6.57-1.8,12.29,13.66,24.6,32.28,44.23,57.5,57.22,3.14,1.62,6.31,3.16,9.48,4.71,4.7,2.31,7.39,1.97,10.86-1.89,5.43-6.03,10.76-12.16,15.98-18.37,3.46-4.12,5.65-5.08,10.56-2.95,5.17,2.24,10.19,4.86,15.18,7.49,8.75,4.6,17.4,9.37,26.14,13.99,2.99,1.58,4.46,3.84,4.16,7.26Z" fill="#25D366"/>
  <!-- <path d="M0,0v500h500V0H0ZM380.9,398.65c-31.04,26.59-67.59,41.22-108.3,45.06-39.94,3.76-77.65-3.92-113.06-22.76-1.65-.88-3.02-.9-4.73-.35-34.87,11.21-69.75,22.36-104.63,33.53-.81.26-1.64.48-3.06.9,2.99-8.89,5.76-17.16,8.54-25.43,8.84-26.26,17.66-52.53,26.55-78.78.62-1.84.46-3.26-.52-4.94-16.24-27.79-25.62-57.74-26.89-89.91-2.68-67.63,22.23-123.33,74.38-166.3,32.35-26.65,70.07-40.94,111.96-43.42,52.87-3.12,100.05,12.15,140.63,46.14,39.26,32.87,63.2,75.05,69.43,125.91,8.85,72.32-14.9,132.91-70.29,180.36Z" fill="#25D366"/> -->
</svg>